STARTFONT 2.1
FONT -FontForge-Hanalei-Book-R-Normal--36-360-72-72-P-182-ISO10646-1
SIZE 36 72 72
FONTBOUNDINGBOX 46 47 -2 -10
COMMENT "Generated by fontforge, http://fontforge.sourceforge.net"
COMMENT "Copyright (c) 2012 by Brian J. Bonislawsky DBA Astigmatic (AOETI) (astigma@astigmatic.com), with ReservedFont Name "Hanalei""
STARTPROPERTIES 39
FOUNDRY "FontForge"
FAMILY_NAME "Hanalei"
WEIGHT_NAME "Book"
SLANT "R"
SETWIDTH_NAME "Normal"
ADD_STYLE_NAME ""
PIXEL_SIZE 36
POINT_SIZE 360
RESOLUTION_X 72
RESOLUTION_Y 72
SPACING "P"
AVERAGE_WIDTH 182
CHARSET_REGISTRY "ISO10646"
CHARSET_ENCODING "1"
FONTNAME_REGISTRY ""
CHARSET_COLLECTIONS "ISO8859-2 ISO8859-9 ISO8859-4 ISO10646-1"
FONT_NAME "Hanalei-Regular"
FACE_NAME "Hanalei"
COPYRIGHT "Copyright (c) 2012 by Brian J. Bonislawsky DBA Astigmatic (AOETI) (astigma@astigmatic.com), with ReservedFont Name "Hanalei""
FONT_VERSION "1.000"
FONT_ASCENT 29
FONT_DESCENT 7
UNDERLINE_POSITION -5
UNDERLINE_THICKNESS 1
X_HEIGHT 23
CAP_HEIGHT 23
RAW_ASCENT 799
RAW_DESCENT 200
NORM_SPACE 7
RELATIVE_WEIGHT 40
RELATIVE_SETWIDTH 50
SUPERSCRIPT_X 0
SUPERSCRIPT_Y 17
SUPERSCRIPT_SIZE 23
SUBSCRIPT_X 0
SUBSCRIPT_Y 5
SUBSCRIPT_SIZE 23
AVG_LOWERCASE_WIDTH 194
AVG_UPPERCASE_WIDTH 190
ENDPROPERTIES
CHARS 366
STARTCHAR space
ENCODING 32
SWIDTH 200 0
DWIDTH 7 0
BBX 1 1 0 0
BITMAP
00
ENDCHAR
STARTCHAR exclam
ENCODING 33
SWIDTH 257 0
DWIDTH 9 0
BBX 7 26 1 -1
BITMAP
3C
C2
82
42
42
42
42
42
42
FA
82
42
44
44
44
44
82
7C
00
00
FC
44
44
44
4C
30
ENDCHAR
STARTCHAR quotedbl
ENCODING 34
SWIDTH 476 0
DWIDTH 17 0
BBX 15 14 1 12
BITMAP
7C7E
82C2
8442
4442
4442
8442
FAFA
8482
8442
8442
8442
8242
8282
7C7C
ENDCHAR
STARTCHAR numbersign
ENCODING 35
SWIDTH 1076 0
DWIDTH 39 0
BBX 37 25 1 0
BITMAP
3F03E18C20
41841277D0
4284240410
42842404F0
4244240508
4244262108
422425FF08
5225222110
6FD6E22110
4214222110
4214222110
420C243E70
430C242590
4304266410
428A258410
7EB3E40410
42C2227BD0
4242218420
4261200000
4221A1FFC0
4220A10040
4210610040
8210A10040
8213210040
7C0FC0FFC0
ENDCHAR
STARTCHAR dollar
ENCODING 36
SWIDTH 453 0
DWIDTH 16 0
BBX 14 33 1 -5
BITMAP
07C0
0840
0840
0840
0850
0468
0BC4
0F04
7104
8104
80BC
80C0
8700
DB80
B140
C220
321C
0804
0604
0104
078C
1974
E104
809C
8060
83C0
4C40
7840
0840
0840
0840
0CC0
0300
ENDCHAR
STARTCHAR percent
ENCODING 37
SWIDTH 889 0
DWIDTH 32 0
BBX 30 25 1 0
BITMAP
7F800000
4041E000
F0611000
88511000
8F922000
89222000
89222000
89222000
89272000
BF14A000
C1144000
C1144FF0
40E45010
3FC89E0C
0008A214
000E93F4
00099244
00089244
00111244
00112644
00112BC4
00212844
00212844
001E1838
000007F0
ENDCHAR
STARTCHAR ampersand
ENCODING 38
SWIDTH 627 0
DWIDTH 23 0
BBX 23 27 0 -1
BITMAP
03F800
0507E0
06C410
084410
104BD0
087470
042C20
042820
021040
02F080
030900
030900
050600
088600
088200
104118
20DDE4
412104
83E102
829082
8490BC
E88840
908820
803860
47C8C0
780700
200000
ENDCHAR
STARTCHAR quotesingle
ENCODING 39
SWIDTH 246 0
DWIDTH 9 0
BBX 7 14 1 12
BITMAP
7C
82
84
44
44
84
FA
84
84
84
84
82
82
7C
ENDCHAR
STARTCHAR parenleft
ENCODING 40
SWIDTH 387 0
DWIDTH 14 0
BBX 14 29 0 -2
BITMAP
01E0
0210
0210
0218
0420
0820
1C40
1240
2180
2080
4100
4300
8200
8400
8600
E600
7900
2180
10C0
1140
0E20
0C20
0410
0608
0204
0104
0084
0088
00F0
ENDCHAR
STARTCHAR parenright
ENCODING 41
SWIDTH 386 0
DWIDTH 14 0
BBX 14 29 0 -2
BITMAP
1E00
2200
4100
2100
1080
1040
0860
0920
0A20
0410
0210
0208
0104
0104
0184
019C
0268
0410
0820
0A20
1140
10C0
2080
4100
8200
8200
8400
4400
3C00
ENDCHAR
STARTCHAR asterisk
ENCODING 42
SWIDTH 517 0
DWIDTH 19 0
BBX 17 16 1 10
BITMAP
01C000
022000
024000
024000
624300
924C80
8DB080
822080
742F00
081000
067000
09C800
114800
224400
222200
1C3C00
ENDCHAR
STARTCHAR plus
ENCODING 43
SWIDTH 458 0
DWIDTH 17 0
BBX 15 15 1 4
BITMAP
07C0
0820
0440
0440
7FFC
8104
8082
8082
8102
9FFC
6444
0440
0840
0C40
0380
ENDCHAR
STARTCHAR comma
ENCODING 44
SWIDTH 228 0
DWIDTH 8 0
BBX 9 10 -1 -5
BITMAP
0C00
1300
1100
2080
6100
C200
8400
8400
4800
3800
ENDCHAR
STARTCHAR hyphen
ENCODING 45
SWIDTH 465 0
DWIDTH 17 0
BBX 15 7 1 8
BITMAP
7FFC
8082
8082
8082
8102
7FFC
4000
ENDCHAR
STARTCHAR period
ENCODING 46
SWIDTH 202 0
DWIDTH 7 0
BBX 6 6 1 -1
BITMAP
FC
88
88
88
C8
30
ENDCHAR
STARTCHAR slash
ENCODING 47
SWIDTH 453 0
DWIDTH 16 0
BBX 15 25 1 0
BITMAP
0020
0098
0084
0082
0084
0108
0208
0310
04D0
0410
0420
0820
0840
1040
1880
1680
2180
2100
4100
4200
8200
8200
8400
6400
1800
ENDCHAR
STARTCHAR zero
ENCODING 48
SWIDTH 646 0
DWIDTH 23 0
BBX 24 26 0 0
BITMAP
00F000
009C00
010A00
010600
020900
041080
0C3040
133820
1148A0
20C510
208608
410204
BA0102
C60081
C201C3
810342
C0C62C
206910
11B8A0
0A3020
0660C0
028100
018200
008200
004400
003800
ENDCHAR
STARTCHAR one
ENCODING 49
SWIDTH 400 0
DWIDTH 14 0
BBX 14 26 0 -1
BITMAP
03F0
050C
0908
3108
C108
8108
8308
8508
4BE8
3208
0108
0108
0108
0108
0108
0108
03F8
0108
0108
0108
0108
0108
0208
0208
0118
00C0
ENDCHAR
STARTCHAR two
ENCODING 50
SWIDTH 502 0
DWIDTH 18 0
BBX 17 26 0 -1
BITMAP
018000
027000
042800
082C00
102400
20C200
C1C100
822080
441080
641880
181B80
006480
008180
01C200
022400
042800
081800
303000
204000
20FF00
714080
5A4080
464080
404080
3FFF00
000100
ENDCHAR
STARTCHAR three
ENCODING 51
SWIDTH 456 0
DWIDTH 16 0
BBX 15 26 1 -1
BITMAP
7000
4FE0
8010
8018
801C
4014
7FE4
044C
0B10
08A0
3120
66C0
4840
4820
2810
180E
061A
01E6
0E02
F102
8102
811C
8060
8780
5800
2000
ENDCHAR
STARTCHAR four
ENCODING 52
SWIDTH 514 0
DWIDTH 19 0
BBX 18 26 0 -1
BITMAP
005E00
00B180
011900
010900
020900
041100
082100
0E6100
117D00
10A100
212100
412100
83FE80
842040
842040
C42040
380F80
0FF180
002100
002100
002100
002100
004100
004100
002300
001800
ENDCHAR
STARTCHAR five
ENCODING 53
SWIDTH 500 0
DWIDTH 18 0
BBX 16 25 1 0
BITMAP
108E
6FF2
8481
4481
4482
477E
4480
4400
8400
BFC4
C0BA
408E
40B1
40A1
3FE1
0011
0011
0011
4021
BFFD
8103
8103
8102
8002
7FFC
ENDCHAR
STARTCHAR six
ENCODING 54
SWIDTH 520 0
DWIDTH 19 0
BBX 19 26 0 -1
BITMAP
07C000
042000
043000
042000
042000
084000
084000
1E4000
114000
106000
10B000
108800
108600
210700
218580
3D4860
232420
211A20
423140
43C1C0
420080
820100
820E00
C23000
3E4000
038000
ENDCHAR
STARTCHAR seven
ENCODING 55
SWIDTH 423 0
DWIDTH 15 0
BBX 16 25 0 0
BITMAP
630C
9D72
8102
8102
8103
8072
7F8C
0084
0184
0174
0104
0108
0208
0210
0210
0790
0450
0420
0420
0840
0840
1040
1040
1040
0F80
ENDCHAR
STARTCHAR eight
ENCODING 56
SWIDTH 527 0
DWIDTH 19 0
BBX 18 26 0 -1
BITMAP
104180
2FBE80
402040
402040
402FC0
6FF880
310840
309080
105080
09A100
0A2200
042200
041200
0E0C00
090400
088A00
10B200
10C200
214100
422080
83D040
841040
441840
3C18C0
1FFFC0
080000
ENDCHAR
STARTCHAR nine
ENCODING 57
SWIDTH 500 0
DWIDTH 18 0
BBX 19 25 0 0
BITMAP
001800
006700
078280
790240
808260
808E40
803080
83E080
4E7100
B14D00
41C100
204200
108400
088400
050400
038800
026800
020800
021000
041000
042000
182000
084000
084000
07C000
ENDCHAR
STARTCHAR colon
ENCODING 58
SWIDTH 245 0
DWIDTH 9 0
BBX 5 20 2 -1
BITMAP
30
88
88
88
88
F8
00
00
00
00
00
00
00
00
F8
88
88
88
98
60
ENDCHAR
STARTCHAR semicolon
ENCODING 59
SWIDTH 270 0
DWIDTH 10 0
BBX 8 24 0 -5
BITMAP
06
31
11
11
11
1F
00
00
00
00
00
00
00
00
1C
12
21
21
41
82
84
88
C8
30
ENDCHAR
STARTCHAR less
ENCODING 60
SWIDTH 445 0
DWIDTH 16 0
BBX 14 19 1 3
BITMAP
0070
00C8
0304
0604
0904
3118
C0E0
80C0
8300
C400
EB00
9080
80E0
E138
1B04
0404
0304
00C8
0070
ENDCHAR
STARTCHAR equal
ENCODING 61
SWIDTH 484 0
DWIDTH 17 0
BBX 15 16 1 5
BITMAP
2184
5EFA
8082
8082
8082
4022
7FDC
0000
0000
2184
5EFA
8082
8082
8082
4022
7FDC
ENDCHAR
STARTCHAR greater
ENCODING 62
SWIDTH 445 0
DWIDTH 16 0
BBX 14 19 1 3
BITMAP
3800
4C00
8300
8180
8340
6230
1A0C
0C04
0304
0084
035C
0424
1C04
721C
8320
80C0
8300
4C00
3800
ENDCHAR
STARTCHAR question
ENCODING 63
SWIDTH 455 0
DWIDTH 16 0
BBX 15 26 1 -1
BITMAP
7000
8F00
80C0
80BC
8084
F102
0C04
03C4
033A
0C16
1018
3020
28C0
2500
2300
2100
2100
3E00
0000
0000
3E00
2200
2200
2200
2200
1C00
ENDCHAR
STARTCHAR at
ENCODING 64
SWIDTH 812 0
DWIDTH 29 0
BBX 28 28 1 -2
BITMAP
1FFFC400
2020BA00
60208F00
60409100
57DF7100
4C208900
44FE4880
4485AB80
45042C80
75642880
449FF440
448A1440
451115C0
45112640
45112440
65611220
5E9FFE20
46820A10
45820A20
448211C0
447FFC40
46000180
85C00000
4CBC0000
30840000
1E840000
01E40000
00180000
ENDCHAR
STARTCHAR A
ENCODING 65
SWIDTH 507 0
DWIDTH 18 0
BBX 19 25 0 0
BITMAP
07C000
042000
043000
042800
084800
084800
084400
1C4400
134400
104200
10FA00
10C200
10A200
212280
213F40
3DE020
232020
211020
421020
420FE0
43F880
820840
820840
C208C0
3C0F00
ENDCHAR
STARTCHAR B
ENCODING 66
SWIDTH 533 0
DWIDTH 19 0
BBX 18 28 1 -1
BITMAP
0C0000
120000
71C000
603000
601C00
6023C0
5E2040
438040
427040
721C80
CE6380
438080
424380
424400
425800
423400
42C380
7F0080
42E080
423080
43C940
464640
7841C0
404E00
C01000
C0E000
630000
1C0000
ENDCHAR
STARTCHAR C
ENCODING 67
SWIDTH 515 0
DWIDTH 19 0
BBX 19 27 0 -1
BITMAP
080000
17F000
101FC0
101040
101040
102040
1FCC40
10B380
108000
3E8000
208000
210000
210000
210000
210000
310000
2F0000
210000
210080
427F40
43A040
422020
822020
762040
280FC0
37F000
180000
ENDCHAR
STARTCHAR D
ENCODING 68
SWIDTH 520 0
DWIDTH 19 0
BBX 18 27 1 -1
BITMAP
070000
790000
508000
504000
502000
481800
440800
421400
532200
EE8100
4240C0
423040
421840
420880
421740
422040
7EC080
43E300
431200
421400
420800
421000
822000
824000
828000
7D0000
030000
ENDCHAR
STARTCHAR E
ENCODING 69
SWIDTH 490 0
DWIDTH 18 0
BBX 17 25 1 0
BITMAP
7FFF00
424100
424080
424080
424100
43BF00
424000
520000
EE0000
421000
43E800
420800
420800
420800
43C800
7E3000
420000
420000
43E200
425D00
424100
824100
828100
83FB00
7C0600
ENDCHAR
STARTCHAR F
ENCODING 70
SWIDTH 475 0
DWIDTH 17 0
BBX 17 25 1 0
BITMAP
7FFF00
424100
424080
424080
424100
43BF00
424000
520000
EE0000
421000
43E800
420800
420800
420800
43C800
7E3000
420000
420000
420000
420000
420000
820000
820000
820000
7C0000
ENDCHAR
STARTCHAR G
ENCODING 71
SWIDTH 557 0
DWIDTH 20 0
BBX 20 27 0 -1
BITMAP
080000
17F000
101FC0
101040
101040
102040
1FCC40
10B380
108000
3E8000
208000
2103C0
210C20
210420
210420
310420
2F0420
2105A0
210660
427C20
43A420
422420
822420
762410
280C20
37F3C0
180000
ENDCHAR
STARTCHAR H
ENCODING 72
SWIDTH 611 0
DWIDTH 22 0
BBX 21 25 1 0
BITMAP
7E07C0
430820
420820
420820
420420
420420
420820
720820
CE0FA0
420820
420840
420460
4204D0
420708
437A08
7F8208
428208
4281F0
429E40
426840
438840
820820
820820
820860
7C0780
ENDCHAR
STARTCHAR I
ENCODING 73
SWIDTH 266 0
DWIDTH 10 0
BBX 8 25 1 0
BITMAP
7E
43
42
42
42
42
42
72
CE
42
42
42
42
42
42
7E
42
42
42
42
42
82
82
82
7C
ENDCHAR
STARTCHAR J
ENCODING 74
SWIDTH 484 0
DWIDTH 17 0
BBX 17 26 -1 -1
BITMAP
001F80
001080
001080
001080
001080
001080
001080
001480
003A80
001080
001080
001080
1C1080
641080
421080
813F80
409080
205080
135080
0C3080
0C1080
040C80
020480
010880
009F00
00F000
ENDCHAR
STARTCHAR K
ENCODING 75
SWIDTH 541 0
DWIDTH 20 0
BBX 19 25 1 0
BITMAP
7E0200
430580
420440
420820
421020
422040
426080
529100
EE8A00
430200
420400
420800
421800
422400
43A400
7E4200
42CE00
437100
424100
422100
422080
8210C0
821040
821080
7C1F00
ENDCHAR
STARTCHAR L
ENCODING 76
SWIDTH 467 0
DWIDTH 17 0
BBX 17 25 1 0
BITMAP
7E0000
430000
420000
420000
420000
420000
420000
720000
CE0000
420000
420000
420000
420000
420000
420000
7E0000
420000
420000
438200
42F900
428100
828080
828080
827900
7D8600
ENDCHAR
STARTCHAR M
ENCODING 77
SWIDTH 733 0
DWIDTH 26 0
BBX 27 25 0 0
BITMAP
0F80F800
08408400
08608600
08608600
08610A00
10910A00
10910A00
1C93CA00
22922A00
108A1100
10FA1F00
218A1100
21843100
21443100
21443100
7D43B080
415A3080
42224F80
42214880
42214880
42118840
82108840
8210C840
C2118860
3C1E0FC0
ENDCHAR
STARTCHAR N
ENCODING 78
SWIDTH 598 0
DWIDTH 22 0
BBX 20 25 1 0
BITMAP
7E07E0
438430
428420
428420
428420
424420
426420
422420
FBEFA0
421420
421420
421420
430C20
430420
428C20
7EB3E0
42C220
424220
424120
422120
4220A0
4220A0
8210A0
821320
7C07C0
ENDCHAR
STARTCHAR O
ENCODING 79
SWIDTH 612 0
DWIDTH 22 0
BBX 22 27 0 -1
BITMAP
080000
17F000
101FF0
101050
101050
102060
1FCC60
10B390
108210
3E83D0
208410
210210
210210
210210
210210
310208
2F03E8
210208
210148
423FE8
43D018
421018
821018
76101C
2807F0
37F800
180000
ENDCHAR
STARTCHAR P
ENCODING 80
SWIDTH 513 0
DWIDTH 18 0
BBX 18 26 1 0
BITMAP
1E0000
318000
607000
601800
602780
582040
474040
42C040
423880
FA1680
822180
42C080
43C300
424400
422800
421000
722000
86C000
430000
420000
420000
420000
420000
820000
820000
7E0000
ENDCHAR
STARTCHAR Q
ENCODING 81
SWIDTH 612 0
DWIDTH 22 0
BBX 22 31 0 -5
BITMAP
080000
17F000
101FF0
101050
101050
102060
1FCC60
10B390
108210
3E83D0
208410
210210
210210
210210
210210
310208
2F03E8
210208
210148
423FE8
43D018
421018
821018
76101C
2807F0
37FC00
188400
008400
008200
008600
007C00
ENDCHAR
STARTCHAR R
ENCODING 82
SWIDTH 532 0
DWIDTH 19 0
BBX 18 27 1 -1
BITMAP
0C0000
130000
60F000
601800
602600
7021C0
4E2040
438040
427840
7A1480
822380
42C080
43B100
424C00
428800
430400
428400
FEC200
434D00
423100
422100
421080
421040
820840
820840
C60580
380200
ENDCHAR
STARTCHAR S
ENCODING 83
SWIDTH 442 0
DWIDTH 16 0
BBX 16 27 0 -1
BITMAP
0004
23FA
3C82
5C81
6482
421E
C3E0
4100
2180
1080
1340
1C40
0820
0420
0410
0208
0268
0188
0104
0282
7DC1
8141
8122
8126
80FC
5F00
2000
ENDCHAR
STARTCHAR T
ENCODING 84
SWIDTH 453 0
DWIDTH 16 0
BBX 17 25 0 0
BITMAP
FFFF00
808100
808080
808080
800100
7FFF00
042000
042000
042000
07D000
042000
042000
042000
042000
042000
042000
07D000
042000
042000
042000
042000
042000
042000
0C3000
03E000
ENDCHAR
STARTCHAR U
ENCODING 85
SWIDTH 583 0
DWIDTH 21 0
BBX 20 26 0 -1
BITMAP
1F07C0
108820
108420
108420
110420
110420
210420
290420
3687E0
210420
210420
210420
210420
210420
610410
5D07D0
410410
4205A0
427E60
43A070
422050
832050
622050
3C0FD0
13F3E0
1C0000
ENDCHAR
STARTCHAR V
ENCODING 86
SWIDTH 506 0
DWIDTH 18 0
BBX 18 25 0 -1
BITMAP
7E0700
8208C0
820840
420840
420880
421080
411080
4D3E80
712080
212100
212100
10A100
10A200
10E200
105E00
1F4200
084200
084400
088400
048400
050400
050400
048C00
047000
038000
ENDCHAR
STARTCHAR W
ENCODING 87
SWIDTH 735 0
DWIDTH 26 0
BBX 26 26 0 -1
BITMAP
00000600
7C001980
840F0840
84110840
42211080
42311080
42309080
43489080
4D787C80
714F6280
21486100
21486100
21446100
10842100
1084C100
10FF6100
1F865D00
10864200
088A4200
090A4200
050A8400
050A8400
06098400
05890400
04F0C400
03803000
ENDCHAR
STARTCHAR X
ENCODING 88
SWIDTH 483 0
DWIDTH 17 0
BBX 17 24 0 0
BITMAP
3C1E00
421100
421080
C22080
212100
20C200
108200
136400
0D1400
090800
060800
041000
042800
0C2400
0A7400
114400
10C200
20C200
414100
C22080
822080
821080
441100
3C0E00
ENDCHAR
STARTCHAR Y
ENCODING 89
SWIDTH 484 0
DWIDTH 17 0
BBX 19 25 -1 0
BITMAP
000300
3C04C0
440420
820420
820820
410840
209080
117880
126480
0C2280
0C2100
044200
024200
018400
01C400
013400
011400
010800
021000
061000
041000
082000
042000
032000
00C000
ENDCHAR
STARTCHAR Z
ENCODING 90
SWIDTH 458 0
DWIDTH 16 0
BBX 17 25 0 0
BITMAP
1FFC00
208200
208200
408300
208280
2FFF00
108200
010400
01C400
023800
020800
021000
041000
082000
1C4000
124000
114000
208000
618400
41FA00
828200
828200
C48200
777E00
188000
ENDCHAR
STARTCHAR bracketleft
ENCODING 91
SWIDTH 420 0
DWIDTH 15 0
BBX 14 30 1 -2
BITMAP
0010
00E8
1F04
3804
C604
4238
43C0
4200
4200
4200
8200
FA00
8200
8200
4400
4400
4400
8200
8200
FA00
8200
8400
8400
8400
87F8
8208
8204
C404
3808
1FF8
ENDCHAR
STARTCHAR backslash
ENCODING 92
SWIDTH 453 0
DWIDTH 16 0
BBX 15 25 1 0
BITMAP
1800
6400
8400
8400
8200
4200
4100
2380
2480
2880
1080
0840
0840
0820
0470
0590
0510
0210
0308
010C
0104
0082
0084
0098
0060
ENDCHAR
STARTCHAR bracketright
ENCODING 93
SWIDTH 420 0
DWIDTH 15 0
BBX 14 30 0 -2
BITMAP
2000
5C00
43E0
8070
818C
7904
0708
0088
0088
0088
0104
017C
0104
0084
0084
0084
0084
0084
0104
017C
0084
0084
0084
0084
7F84
4084
8104
80CC
4030
7FE0
ENDCHAR
STARTCHAR asciicircum
ENCODING 94
SWIDTH 353 0
DWIDTH 13 0
BBX 11 9 1 14
BITMAP
1F00
1300
2300
4480
4440
8A20
9220
D140
2080
ENDCHAR
STARTCHAR underscore
ENCODING 95
SWIDTH 499 0
DWIDTH 18 0
BBX 14 7 2 -10
BITMAP
FFFC
8104
8104
8104
8104
BFFC
4000
ENDCHAR
STARTCHAR grave
ENCODING 96
SWIDTH 183 0
DWIDTH 7 0
BBX 7 8 0 27
BITMAP
38
C8
88
48
44
24
16
1C
ENDCHAR
STARTCHAR a
ENCODING 97
SWIDTH 507 0
DWIDTH 18 0
BBX 19 25 0 0
BITMAP
07C000
042000
043000
042800
084800
084800
084400
1C4400
134400
104200
10FA00
10C200
10A200
212280
213F40
3DE020
232020
211020
421020
420FE0
43F880
820840
820840
C208C0
3C0F00
ENDCHAR
STARTCHAR b
ENCODING 98
SWIDTH 533 0
DWIDTH 19 0
BBX 18 28 1 -1
BITMAP
0C0000
120000
71C000
603000
601C00
6023C0
5E2040
438040
427040
721C80
CE6380
438080
424380
424400
425800
423400
42C380
7F0080
42E080
423080
43C940
464640
7841C0
404E00
C01000
C0E000
630000
1C0000
ENDCHAR
STARTCHAR c
ENCODING 99
SWIDTH 515 0
DWIDTH 19 0
BBX 19 27 0 -1
BITMAP
080000
17F000
101FC0
101040
101040
102040
1FCC40
10B380
108000
3E8000
208000
210000
210000
210000
210000
310000
2F0000
210000
210080
427F40
43A040
422020
822020
762040
280FC0
37F000
180000
ENDCHAR
STARTCHAR d
ENCODING 100
SWIDTH 520 0
DWIDTH 19 0
BBX 18 27 1 -1
BITMAP
070000
790000
508000
504000
502000
481800
440800
421400
532200
EE8100
4240C0
423040
421840
420880
421740
422040
7EC080
43E300
431200
421400
420800
421000
822000
824000
828000
7D0000
030000
ENDCHAR
STARTCHAR e
ENCODING 101
SWIDTH 490 0
DWIDTH 18 0
BBX 17 25 1 0
BITMAP
7FFF00
424100
424080
424080
424100
43BF00
424000
520000
EE0000
421000
43E800
420800
420800
420800
43C800
7E3000
420000
420000
43E200
425D00
424100
824100
828100
83FB00
7C0600
ENDCHAR
STARTCHAR f
ENCODING 102
SWIDTH 475 0
DWIDTH 17 0
BBX 17 25 1 0
BITMAP
7FFF00
424100
424080
424080
424100
43BF00
424000
520000
EE0000
421000
43E800
420800
420800
420800
43C800
7E3000
420000
420000
420000
420000
420000
820000
820000
820000
7C0000
ENDCHAR
STARTCHAR g
ENCODING 103
SWIDTH 557 0
DWIDTH 20 0
BBX 20 27 0 -1
BITMAP
080000
17F000
101FC0
101040
101040
102040
1FCC40
10B380
108000
3E8000
208000
2103C0
210C20
210420
210420
310420
2F0420
2105A0
210660
427C20
43A420
422420
822420
762410
280C20
37F3C0
180000
ENDCHAR
STARTCHAR h
ENCODING 104
SWIDTH 611 0
DWIDTH 22 0
BBX 21 25 1 0
BITMAP
7E07C0
430820
420820
420820
420420
420420
420820
720820
CE0FA0
420820
420840
420460
4204D0
420708
437A08
7F8208
428208
4281F0
429E40
426840
438840
820820
820820
820860
7C0780
ENDCHAR
STARTCHAR i
ENCODING 105
SWIDTH 266 0
DWIDTH 10 0
BBX 8 25 1 0
BITMAP
7E
43
42
42
42
42
42
72
CE
42
42
42
42
42
42
7E
42
42
42
42
42
82
82
82
7C
ENDCHAR
STARTCHAR j
ENCODING 106
SWIDTH 482 0
DWIDTH 17 0
BBX 17 26 -1 -1
BITMAP
001F80
001080
001080
001080
001080
001080
001080
001480
003A80
001080
001080
001080
1C1080
641080
421080
813F80
409080
205080
135080
0C3080
0C1080
040C80
020480
010880
009F00
00F000
ENDCHAR
STARTCHAR k
ENCODING 107
SWIDTH 541 0
DWIDTH 20 0
BBX 19 25 1 0
BITMAP
7E0200
430580
420440
420820
421020
422040
426080
529100
EE8A00
430200
420400
420800
421800
422400
43A400
7E4200
42CE00
437100
424100
422100
422080
8210C0
821040
821080
7C1F00
ENDCHAR
STARTCHAR l
ENCODING 108
SWIDTH 467 0
DWIDTH 17 0
BBX 17 25 1 0
BITMAP
7E0000
430000
420000
420000
420000
420000
420000
720000
CE0000
420000
420000
420000
420000
420000
420000
7E0000
420000
420000
438200
42F900
428100
828080
828080
827900
7D8600
ENDCHAR
STARTCHAR m
ENCODING 109
SWIDTH 733 0
DWIDTH 26 0
BBX 27 25 0 0
BITMAP
0F80F800
08408400
08608600
08608600
08610A00
10910A00
10910A00
1C93CA00
22922A00
108A1100
10FA1F00
218A1100
21843100
21443100
21443100
7D43B080
415A3080
42224F80
42214880
42214880
42118840
82108840
8210C840
C2118860
3C1E0FC0
ENDCHAR
STARTCHAR n
ENCODING 110
SWIDTH 598 0
DWIDTH 22 0
BBX 20 25 1 0
BITMAP
7E07E0
438430
428420
428420
428420
424420
426420
422420
FBEFA0
421420
421420
421420
430C20
430420
428C20
7EB3E0
42C220
424220
424120
422120
4220A0
4220A0
8210A0
821320
7C07C0
ENDCHAR
STARTCHAR o
ENCODING 111
SWIDTH 612 0
DWIDTH 22 0
BBX 22 27 0 -1
BITMAP
080000
17F000
101FF0
101050
101050
102060
1FCC60
10B390
108210
3E83D0
208410
210210
210210
210210
210210
310208
2F03E8
210208
210148
423FE8
43D018
421018
821018
76101C
2807F0
37F800
180000
ENDCHAR
STARTCHAR p
ENCODING 112
SWIDTH 513 0
DWIDTH 18 0
BBX 18 26 1 0
BITMAP
1E0000
318000
607000
601800
602780
582040
474040
42C040
423880
FA1680
822180
42C080
43C300
424400
422800
421000
722000
86C000
430000
420000
420000
420000
420000
820000
820000
7E0000
ENDCHAR
STARTCHAR q
ENCODING 113
SWIDTH 612 0
DWIDTH 22 0
BBX 22 31 0 -5
BITMAP
080000
17F000
101FF0
101050
101050
102060
1FCC60
10B390
108210
3E83D0
208410
210210
210210
210210
210210
310208
2F03E8
210208
210148
423FE8
43D018
421018
821018
76101C
2807F0
37FC00
188400
008400
008200
008600
007C00
ENDCHAR
STARTCHAR r
ENCODING 114
SWIDTH 532 0
DWIDTH 19 0
BBX 18 27 1 -1
BITMAP
0C0000
130000
60F000
601800
602600
7021C0
4E2040
438040
427840
7A1480
822380
42C080
43B100
424C00
428800
430400
428400
FEC200
434D00
423100
422100
421080
421040
820840
820840
C60580
380200
ENDCHAR
STARTCHAR s
ENCODING 115
SWIDTH 442 0
DWIDTH 16 0
BBX 16 27 0 -1
BITMAP
0004
23FA
3C82
5C81
6482
421E
C3E0
4100
2180
1080
1340
1C40
0820
0420
0410
0208
0268
0188
0104
0282
7DC1
8141
8122
8126
80FC
5F00
2000
ENDCHAR
STARTCHAR t
ENCODING 116
SWIDTH 453 0
DWIDTH 16 0
BBX 17 25 0 0
BITMAP
FFFF00
808100
808080
808080
800100
7FFF00
042000
042000
042000
07D000
042000
042000
042000
042000
042000
042000
07D000
042000
042000
042000
042000
042000
042000
0C3000
03E000
ENDCHAR
STARTCHAR u
ENCODING 117
SWIDTH 583 0
DWIDTH 21 0
BBX 20 26 0 -1
BITMAP
1F07C0
108820
108420
108420
110420
110420
210420
290420
3687E0
210420
210420
210420
210420
210420
610410
5D07D0
410410
4205A0
427E60
43A070
422050
832050
622050
3C0FD0
13F3E0
1C0000
ENDCHAR
STARTCHAR v
ENCODING 118
SWIDTH 506 0
DWIDTH 18 0
BBX 18 25 0 -1
BITMAP
7E0700
8208C0
820840
420840
420880
421080
411080
4D3E80
712080
212100
212100
10A100
10A200
10E200
105E00
1F4200
084200
084400
088400
048400
050400
050400
048C00
047000
038000
ENDCHAR
STARTCHAR w
ENCODING 119
SWIDTH 735 0
DWIDTH 26 0
BBX 26 26 0 -1
BITMAP
00000600
7C001980
840F0840
84110840
42211080
42311080
42309080
43489080
4D787C80
714F6280
21486100
21486100
21446100
10842100
1084C100
10FF6100
1F865D00
10864200
088A4200
090A4200
050A8400
050A8400
06098400
05890400
04F0C400
03803000
ENDCHAR
STARTCHAR x
ENCODING 120
SWIDTH 483 0
DWIDTH 17 0
BBX 17 24 0 0
BITMAP
3C1E00
421100
421080
C22080
212100
20C200
108200
136400
0D1400
090800
060800
041000
042800
0C2400
0A7400
114400
10C200
20C200
414100
C22080
822080
821080
441100
3C0E00
ENDCHAR
STARTCHAR y
ENCODING 121
SWIDTH 484 0
DWIDTH 17 0
BBX 19 25 -1 0
BITMAP
000300
3C04C0
440420
820420
820820
410840
209080
117880
126480
0C2280
0C2100
044200
024200
018400
01C400
013400
011400
010800
021000
061000
041000
082000
042000
032000
00C000
ENDCHAR
STARTCHAR z
ENCODING 122
SWIDTH 458 0
DWIDTH 16 0
BBX 17 25 0 0
BITMAP
1FFC00
208200
208200
408300
208280
2FFF00
108200
010400
01C400
023800
020800
021000
041000
082000
1C4000
124000
114000
208000
618400
41FA00
828200
828200
C48200
777E00
188000
ENDCHAR
STARTCHAR braceleft
ENCODING 123
SWIDTH 473 0
DWIDTH 17 0
BBX 17 30 0 -2
BITMAP
000200
001D00
07E100
084080
084080
084700
043800
041000
05D000
061000
021000
020800
7FC800
802400
802800
803000
802800
7FC800
021000
021000
079000
046000
042000
086000
087800
104700
104100
088080
07C100
003F00
ENDCHAR
STARTCHAR bar
ENCODING 124
SWIDTH 263 0
DWIDTH 9 0
BBX 7 29 1 -2
BITMAP
7E
42
42
42
42
42
42
42
42
FA
42
42
42
42
42
42
42
7A
86
42
42
42
42
42
82
82
82
46
38
ENDCHAR
STARTCHAR braceright
ENCODING 125
SWIDTH 473 0
DWIDTH 17 0
BBX 17 30 0 -2
BITMAP
200000
5C0000
43F000
810800
810C00
710800
0E1000
041000
05D000
043000
042000
082000
09FF00
120080
0A0080
060080
0A0080
09FF00
042000
042000
04F000
031000
021000
020800
0F0800
710400
410400
408800
41F000
7E0000
ENDCHAR
STARTCHAR asciitilde
ENCODING 126
SWIDTH 456 0
DWIDTH 16 0
BBX 15 9 1 9
BITMAP
1E3C
1324
2122
22C4
4488
8C50
9230
9230
61E0
ENDCHAR
STARTCHAR nonbreakingspace
ENCODING 160
SWIDTH 200 0
DWIDTH 7 0
BBX 1 1 0 0
BITMAP
00
ENDCHAR
STARTCHAR exclamdown
ENCODING 161
SWIDTH 259 0
DWIDTH 9 0
BBX 7 26 1 -1
BITMAP
3C
42
42
42
42
3C
00
38
46
42
42
42
42
42
42
82
BE
42
42
44
42
42
82
82
46
38
ENDCHAR
STARTCHAR cent
ENCODING 162
SWIDTH 480 0
DWIDTH 17 0
BBX 15 33 1 -5
BITMAP
03E0
0430
0420
0420
0428
0234
05E2
0682
3882
6042
A05E
A060
A380
9C00
8400
FC00
8400
8400
8400
8600
85C0
8270
844E
7842
3C82
0302
04F2
042C
0420
0420
0420
0660
0180
ENDCHAR
STARTCHAR sterling
ENCODING 163
SWIDTH 594 0
DWIDTH 21 0
BBX 20 25 1 0
BITMAP
008000
016000
021C00
0E0380
0A0080
060080
07E080
045C80
084300
0FA000
783C00
884200
884200
884200
884200
F83C00
4FA000
082000
0878E0
085720
084810
084810
082820
0827E0
07D800
ENDCHAR
STARTCHAR currency
ENCODING 164
SWIDTH 640 0
DWIDTH 23 0
BBX 21 21 1 3
BITMAP
100040
6860B0
849988
829D08
832208
464110
2740A0
18A0C0
10B930
206510
408608
418C08
214E30
323120
1E1940
6608B0
811108
833208
84E508
486490
381860
ENDCHAR
STARTCHAR yen
ENCODING 165
SWIDTH 575 0
DWIDTH 21 0
BBX 19 24 1 0
BITMAP
380780
440440
840820
820860
C31840
619080
20A080
137D00
144300
084100
044200
1EC300
27FF00
202080
202080
202080
200080
1FFF00
041000
042000
082000
082000
042000
03C000
ENDCHAR
STARTCHAR brokenbar
ENCODING 166
SWIDTH 258 0
DWIDTH 9 0
BBX 7 32 1 -4
BITMAP
7C
82
42
42
44
42
FA
82
42
42
42
82
82
46
10
00
00
7C
82
42
42
44
42
FA
82
42
42
42
42
82
46
38
ENDCHAR
STARTCHAR section
ENCODING 167
SWIDTH 474 0
DWIDTH 17 0
BBX 15 27 1 -1
BITMAP
0008
7FF4
C102
8082
A082
F83C
47C0
8160
821C
623A
1C26
23A2
2242
4244
8484
4788
E578
8A04
7202
0C02
7FC4
812C
8092
8082
807C
5F80
2000
ENDCHAR
STARTCHAR dieresis
ENCODING 168
SWIDTH 351 0
DWIDTH 13 0
BBX 13 6 0 27
BITMAP
3860
C598
8510
4510
4510
78E0
ENDCHAR
STARTCHAR copyright
ENCODING 169
SWIDTH 719 0
DWIDTH 26 0
BBX 24 27 1 -1
BITMAP
3FFF8C
204174
60411E
604121
6FBEF1
544112
480012
487F12
448122
F5813D
84FF22
489022
48A012
48A012
48A022
A49F29
D51135
89F122
487F22
480022
880022
87FFFA
848205
C88206
608204
3FFFF8
000008
ENDCHAR
STARTCHAR ordfeminine
ENCODING 170
SWIDTH 455 0
DWIDTH 16 0
BBX 17 25 0 0
BITMAP
07F000
090800
0A0800
0A0800
090800
110800
108400
108400
388C00
27B400
214200
4F4200
50C200
602100
A02100
93E080
8C2100
7C3E00
000000
1FF800
200400
200400
200400
100400
1FF800
ENDCHAR
STARTCHAR guillemotleft
ENCODING 171
SWIDTH 689 0
DWIDTH 25 0
BBX 23 16 1 5
BITMAP
010010
02C02C
046044
182182
602602
80C80C
810830
860840
CC0CC0
BA0F20
818818
604604
102102
082084
044044
038038
ENDCHAR
STARTCHAR logicalnot
ENCODING 172
SWIDTH 591 0
DWIDTH 21 0
BBX 19 14 1 1
BITMAP
7FE180
805E80
8043C0
804420
804420
8F3C20
70C420
000420
000420
000420
000420
000420
000420
0003C0
ENDCHAR
STARTCHAR uni00AD
ENCODING 173
SWIDTH 465 0
DWIDTH 17 0
BBX 15 7 1 8
BITMAP
7FFC
8082
8082
8082
8102
7FFC
4000
ENDCHAR
STARTCHAR registered
ENCODING 174
SWIDTH 719 0
DWIDTH 26 0
BBX 24 27 1 -1
BITMAP
3FFF8C
204174
60411E
604121
6FBEF1
544112
480012
482012
44F822
F4C73D
84E0A2
489D22
489312
489012
489022
A49029
D49035
889022
489022
486022
880022
87FFFA
848205
C88206
608204
3FFFF8
000008
ENDCHAR
STARTCHAR macron
ENCODING 175
SWIDTH 263 0
DWIDTH 9 0
BBX 9 5 0 27
BITMAP
7B00
8480
8080
8080
7F80
ENDCHAR
STARTCHAR degree
ENCODING 176
SWIDTH 333 0
DWIDTH 12 0
BBX 12 10 0 14
BITMAP
1D80
1240
2140
2240
C520
4910
76A0
40E0
4020
3FC0
ENDCHAR
STARTCHAR plusminus
ENCODING 177
SWIDTH 464 0
DWIDTH 17 0
BBX 15 23 1 -4
BITMAP
07C0
0820
0420
0440
7FFC
8104
8082
8082
8102
DEFC
6444
0440
0840
0C40
0380
0000
6304
9DF4
8082
8082
8082
8024
7FDC
ENDCHAR
STARTCHAR twosuperior
ENCODING 178
SWIDTH 324 0
DWIDTH 12 0
BBX 10 14 1 11
BITMAP
7F00
8080
8080
8080
FF80
1080
1100
2200
4400
8780
8840
C840
7040
7F80
ENDCHAR
STARTCHAR threesuperior
ENCODING 179
SWIDTH 332 0
DWIDTH 12 0
BBX 10 14 1 11
BITMAP
FF00
8080
80C0
80C0
FFC0
1C40
2440
2440
1C40
3C40
4440
86C0
83C0
7C00
ENDCHAR
STARTCHAR acute
ENCODING 180
SWIDTH 202 0
DWIDTH 7 0
BBX 7 8 0 27
BITMAP
1C
12
22
22
44
88
90
70
ENDCHAR
STARTCHAR mu
ENCODING 181
SWIDTH 582 0
DWIDTH 21 0
BBX 19 30 1 -5
BITMAP
180700
6318C0
411040
210840
210880
220880
220840
220840
421F40
421040
7D0840
420840
420840
420840
420840
420B20
420CA0
420940
420F40
7FF0C0
4240C0
4240A0
4240A0
421FA0
43ECC0
420300
820000
820000
460000
180000
ENDCHAR
STARTCHAR paragraph
ENCODING 182
SWIDTH 556 0
DWIDTH 20 0
BBX 18 27 1 -1
BITMAP
001C00
006300
038280
0E0140
720280
810E80
813080
80D080
8F1080
D61F80
A11080
C0D080
20B080
191080
051080
061080
011080
00DF80
007080
003080
001080
001080
001080
001080
002080
001180
000600
ENDCHAR
STARTCHAR periodcentered
ENCODING 183
SWIDTH 215 0
DWIDTH 8 0
BBX 6 6 1 10
BITMAP
78
84
88
88
8C
30
ENDCHAR
STARTCHAR cedilla
ENCODING 184
SWIDTH 237 0
DWIDTH 9 0
BBX 9 11 0 -8
BITMAP
0700
0900
0900
0900
0900
0900
7880
8700
8700
9800
6000
ENDCHAR
STARTCHAR onesuperior
ENCODING 185
SWIDTH 286 0
DWIDTH 10 0
BBX 9 14 0 11
BITMAP
0700
0880
1080
6180
8280
8480
4880
3480
0480
0480
0880
0880
0880
0700
ENDCHAR
STARTCHAR ordmasculine
ENCODING 186
SWIDTH 476 0
DWIDTH 17 0
BBX 16 25 1 0
BITMAP
7384
4CFA
8082
80BE
80E2
CC41
F7A2
8422
8422
8422
8442
87CE
84B2
CC82
B082
8082
4E7A
7184
0000
3FF0
2008
4008
2008
2008
1FF0
ENDCHAR
STARTCHAR guillemotright
ENCODING 187
SWIDTH 689 0
DWIDTH 25 0
BBX 23 16 1 5
BITMAP
100300
680480
C40840
830820
808818
606606
102102
0C2082
066046
0BA0BA
302302
C0CC0C
810810
820860
4404C0
380380
ENDCHAR
STARTCHAR onequarter
ENCODING 188
SWIDTH 790 0
DWIDTH 28 0
BBX 27 25 1 0
BITMAP
06000000
090F0000
3088C000
41088000
86888000
88888000
98910000
68910000
089D0000
08A30000
08A10000
08A20600
08A20900
07221080
002213C0
00722220
004A4240
00448640
00450FC0
004490C0
0088F0C0
0088FCC0
00880320
00780420
000003C0
ENDCHAR
STARTCHAR onehalf
ENCODING 189
SWIDTH 771 0
DWIDTH 28 0
BBX 26 25 1 0
BITMAP
06000000
090F0000
3088C000
41088000
86888000
88888000
98910000
68910000
089D0000
08A30000
08A10000
08A24000
08A2BF80
07228080
00228080
0072B480
004A4B80
00441100
00442200
00442200
00884400
008887C0
00888840
00787840
00007FC0
ENDCHAR
STARTCHAR threequarters
ENCODING 190
SWIDTH 817 0
DWIDTH 29 0
BBX 28 25 1 0
BITMAP
7F000000
80838000
80C46000
80C44000
FFC44000
1C444000
24448000
24488000
1C4E8000
3C498000
44488000
82D10380
83D10440
5C110440
201109E0
00391110
00272110
00224310
002247E0
00224860
00427850
00445F50
00442190
003C0110
000000E0
ENDCHAR
STARTCHAR questiondown
ENCODING 191
SWIDTH 455 0
DWIDTH 16 0
BBX 14 26 1 -1
BITMAP
01F8
0110
0110
0108
0198
0060
0000
01F0
0208
0110
0110
02D0
0450
1830
2020
C060
F180
8F00
80C0
821C
8204
F204
0C04
03C4
0028
0010
ENDCHAR
STARTCHAR Agrave
ENCODING 192
SWIDTH 507 0
DWIDTH 18 0
BBX 19 34 0 0
BITMAP
038000
048000
084000
044000
024000
022000
012000
01C000
000000
07C000
042000
043000
042800
084800
084800
084400
1C4400
134400
104200
10FA00
10C200
10A200
212280
213F40
3DE020
232020
211020
421020
420FE0
43F880
820840
820840
C208C0
3C0F00
ENDCHAR
STARTCHAR Aacute
ENCODING 193
SWIDTH 507 0
DWIDTH 18 0
BBX 19 34 0 0
BITMAP
000C00
001200
001100
002200
004400
004800
008800
007000
000000
07C000
042000
043000
042800
084800
084800
084400
1C4400
134400
104200
10FA00
10C200
10A200
212280
213F40
3DE020
232020
211020
421020
420FE0
43F880
820840
820840
C208C0
3C0F00
ENDCHAR
STARTCHAR Acircumflex
ENCODING 194
SWIDTH 507 0
DWIDTH 18 0
BBX 19 35 0 0
BITMAP
01E000
013000
023000
022800
044800
08C400
08A200
092200
061C00
000000
07C000
042000
043000
042800
084800
084800
084400
1C4400
134400
104200
10FA00
10C200
10A200
212280
213F40
3DE020
232020
211020
421020
420FE0
43F880
820840
820840
C208C0
3C0F00
ENDCHAR
STARTCHAR Atilde
ENCODING 195
SWIDTH 507 0
DWIDTH 18 0
BBX 19 35 0 0
BITMAP
03C700
044880
046880
08A900
191100
118A00
228A00
144C00
0C7C00
000000
07C000
042000
043000
042800
084800
084800
084400
1C4400
134400
104200
10FA00
10C200
10A200
212280
213F40
3DE020
232020
211020
421020
420FE0
43F880
820840
820840
C208C0
3C0F00
ENDCHAR
STARTCHAR Adieresis
ENCODING 196
SWIDTH 507 0
DWIDTH 18 0
BBX 19 33 0 0
BITMAP
070C00
18B300
10A200
08A200
08A200
0F1E00
000000
000000
07C000
042000
043000
042800
084800
084800
084400
1C4400
134400
104200
10FA00
10C200
10A200
212280
213F40
3DE020
232020
211020
421020
420FE0
43F880
820840
820840
C208C0
3C0F00
ENDCHAR
STARTCHAR Aring
ENCODING 197
SWIDTH 507 0
DWIDTH 18 0
BBX 19 36 0 0
BITMAP
01F800
022800
022400
046400
08A200
09F200
071C00
040400
05E400
021800
000000
07C000
042000
043000
042800
084800
084800
084400
1C4400
134400
104200
10FA00
10C200
10A200
212280
213F40
3DE020
232020
211020
421020
420FE0
43F880
820840
820840
C208C0
3C0F00
ENDCHAR
STARTCHAR AE
ENCODING 198
SWIDTH 797 0
DWIDTH 29 0
BBX 30 25 -1 0
BITMAP
0003FFF8
003E0A08
00221204
00211204
00411204
00421DF8
00821200
01069000
01E77000
021A1080
020A1F40
02121040
04121040
0C221040
0C3E1E40
0A43F180
11421000
10C21000
20821F10
61FE12E8
41021208
82021208
42041408
22041FC8
1C03E030
ENDCHAR
STARTCHAR Ccedilla
ENCODING 199
SWIDTH 515 0
DWIDTH 19 0
BBX 19 34 0 -8
BITMAP
080000
17F000
101FC0
101040
101040
102040
1FCC40
10B380
108000
3E8000
208000
210000
210000
210000
210000
310000
2F0000
210000
210080
427F40
43A040
422020
822020
762040
280FC0
37F800
184800
004800
004400
03C400
043800
043800
04C000
030000
ENDCHAR
STARTCHAR Egrave
ENCODING 200
SWIDTH 490 0
DWIDTH 18 0
BBX 17 35 1 0
BITMAP
038000
0C8000
088000
048000
044000
026000
024000
018000
000000
000000
7FFF00
424100
424080
424080
424100
43BF00
424000
520000
EE0000
421000
43E800
420800
420800
420800
43C800
7E3000
420000
420000
43E200
425D00
424100
824100
828100
83FB00
7C0600
ENDCHAR
STARTCHAR Eacute
ENCODING 201
SWIDTH 490 0
DWIDTH 18 0
BBX 17 35 1 0
BITMAP
003000
004800
004800
008800
011000
012000
024000
01C000
000000
000000
7FFF00
424100
424080
424080
424100
43BF00
424000
520000
EE0000
421000
43E800
420800
420800
420800
43C800
7E3000
420000
420000
43E200
425D00
424100
824100
828100
83FB00
7C0600
ENDCHAR
STARTCHAR Ecircumflex
ENCODING 202
SWIDTH 490 0
DWIDTH 18 0
BBX 17 35 1 0
BITMAP
03C000
026000
046000
045000
089000
118800
124400
124400
0C3800
000000
7FFF00
424100
424080
424080
424100
43BF00
424000
520000
EE0000
421000
43E800
420800
420800
420800
43C800
7E3000
420000
420000
43E200
425D00
424100
824100
828100
83FB00
7C0600
ENDCHAR
STARTCHAR Edieresis
ENCODING 203
SWIDTH 490 0
DWIDTH 18 0
BBX 17 33 1 0
BITMAP
0E1800
316600
214400
124400
124400
1E3800
000000
000000
7FFF00
424100
424080
424080
424100
43BF00
424000
520000
EE0000
421000
43E800
420800
420800
420800
43C800
7E3000
420000
420000
43E200
425D00
424100
824100
828100
83FB00
7C0600
ENDCHAR
STARTCHAR Igrave
ENCODING 204
SWIDTH 266 0
DWIDTH 10 0
BBX 9 35 0 0
BITMAP
7800
8800
8800
4800
4400
2400
2400
1800
0000
0000
3F00
2180
2100
2100
2100
2100
2100
3900
6700
2100
2100
2100
2100
2100
2100
3F00
2100
2100
2100
2100
2100
4100
4100
4100
3E00
ENDCHAR
STARTCHAR Iacute
ENCODING 205
SWIDTH 266 0
DWIDTH 10 0
BBX 10 35 1 0
BITMAP
0300
0280
0440
0880
0900
1200
1200
0C00
0000
0000
7E00
4300
4200
4200
4200
4200
4200
7200
CE00
4200
4200
4200
4200
4200
4200
7E00
4200
4200
4200
4200
4200
8200
8200
8200
7C00
ENDCHAR
STARTCHAR Icircumflex
ENCODING 206
SWIDTH 266 0
DWIDTH 10 0
BBX 11 35 0 0
BITMAP
1E00
1300
2100
2280
4480
8C40
8A20
9220
71C0
0000
3F00
2180
2100
2100
2100
2100
2100
3900
6700
2100
2100
2100
2100
2100
2100
3F00
2100
2100
2100
2100
2100
4100
4100
4100
3E00
ENDCHAR
STARTCHAR Idieresis
ENCODING 207
SWIDTH 266 0
DWIDTH 10 0
BBX 12 33 -1 0
BITMAP
10C0
CD30
8910
8910
8910
78E0
0000
0000
1F80
10C0
1080
1080
1080
1080
1080
1C80
3380
1080
1080
1080
1080
1080
1080
1F80
1080
1080
1080
1080
1080
2080
2080
2080
1F00
ENDCHAR
STARTCHAR Eth
ENCODING 208
SWIDTH 669 0
DWIDTH 24 0
BBX 25 27 -1 -1
BITMAP
000E0000
00710000
00A08000
00A0C000
00A06000
00581000
008C1800
00862C00
00A74400
00DB0300
30A4C080
4BD42080
80141080
80141980
40143E80
7FB46080
00FA8100
0085C200
00862400
00842800
00841800
00843000
00844000
00848000
01878000
007D0000
00060000
ENDCHAR
STARTCHAR Ntilde
ENCODING 209
SWIDTH 598 0
DWIDTH 22 0
BBX 20 35 1 0
BITMAP
01E380
013240
023440
026C40
044880
08C500
092300
092600
061E00
000000
7E07E0
438430
428420
428420
428420
424420
426420
422420
FBEFA0
421420
421420
421420
430C20
430420
428C20
7EB3E0
42C220
424220
424120
422120
4220A0
4220A0
8210A0
821320
7C07C0
ENDCHAR
STARTCHAR Ograve
ENCODING 210
SWIDTH 612 0
DWIDTH 22 0
BBX 22 35 0 -1
BITMAP
007000
009000
011000
008800
004800
004400
002400
003800
080000
17F000
101FF0
101050
101050
102060
1FCC60
10B390
108210
3E83D0
208410
210210
210210
210210
210210
310208
2F03E8
210208
210148
423FE8
43D018
421018
821018
76101C
2807F0
37F800
180000
ENDCHAR
STARTCHAR Oacute
ENCODING 211
SWIDTH 612 0
DWIDTH 22 0
BBX 22 35 0 -1
BITMAP
000700
000480
000880
000880
001100
002200
002400
001C00
080000
17F000
101FF0
101050
101050
102060
1FCC60
10B390
108210
3E83D0
208410
210210
210210
210210
210210
310208
2F03E8
210208
210148
423FE8
43D018
421018
821018
76101C
2807F0
37F800
180000
ENDCHAR
STARTCHAR Ocircumflex
ENCODING 212
SWIDTH 612 0
DWIDTH 22 0
BBX 22 36 0 -1
BITMAP
003C00
004C00
004600
008A00
011100
022980
022880
024480
01C700
080000
17F000
101FF0
101050
101050
102060
1FCC60
10B390
108210
3E83D0
208410
210210
210210
210210
210210
310208
2F03E8
210208
210148
423FE8
43D018
421018
821018
76101C
2807F0
37F800
180000
ENDCHAR
STARTCHAR Otilde
ENCODING 213
SWIDTH 612 0
DWIDTH 22 0
BBX 22 36 0 -1
BITMAP
0078E0
009910
008910
011620
022240
045240
045180
048980
038F00
080000
17F000
101FF0
101050
101050
102060
1FCC60
10B390
108210
3E83D0
208410
210210
210210
210210
210210
310208
2F03E8
210208
210148
423FE8
43D018
421018
821018
76101C
2807F0
37F800
180000
ENDCHAR
STARTCHAR Odieresis
ENCODING 214
SWIDTH 612 0
DWIDTH 22 0
BBX 22 34 0 -1
BITMAP
018600
067980
044880
044880
044900
03CF00
000000
080000
17F000
101FF0
101050
101050
102060
1FCC60
10B390
108210
3E83D0
208410
210210
210210
210210
210210
310208
2F03E8
210208
210148
423FE8
43D018
421018
821018
76101C
2807F0
37F800
180000
ENDCHAR
STARTCHAR multiply
ENCODING 215
SWIDTH 421 0
DWIDTH 15 0
BBX 13 13 1 5
BITMAP
38F0
4498
8308
8108
8088
60F0
1120
6A30
8C08
8208
8518
48B0
30C0
ENDCHAR
STARTCHAR Oslash
ENCODING 216
SWIDTH 612 0
DWIDTH 22 0
BBX 22 27 0 -1
BITMAP
080000
17F1C0
101F20
101210
101210
102410
1FCC20
10B850
109050
3EBCD0
20A290
212110
214210
214210
218610
310A08
2F8BE8
22CA08
223148
443FE8
483018
485018
909018
60901C
2107F0
31F800
1F0000
ENDCHAR
STARTCHAR Ugrave
ENCODING 217
SWIDTH 583 0
DWIDTH 21 0
BBX 20 35 0 -1
BITMAP
00E000
012000
022000
012000
011000
009000
005800
007000
000000
1F07C0
108820
108420
108420
110420
110420
210420
290420
3687E0
210420
210420
210420
210420
210420
610410
5D07D0
410410
4205A0
427E60
43A070
422050
832050
622050
3C0FD0
13F3E0
1C0000
ENDCHAR
STARTCHAR Uacute
ENCODING 218
SWIDTH 583 0
DWIDTH 21 0
BBX 20 35 0 -1
BITMAP
000C00
001200
001100
002200
002400
00C800
004800
007000
000000
1F07C0
108820
108420
108420
110420
110420
210420
290420
3687E0
210420
210420
210420
210420
210420
610410
5D07D0
410410
4205A0
427E60
43A070
422050
832050
622050
3C0FD0
13F3E0
1C0000
ENDCHAR
STARTCHAR Ucircumflex
ENCODING 219
SWIDTH 583 0
DWIDTH 21 0
BBX 20 36 0 -1
BITMAP
00F000
009800
011800
011400
022400
046200
045100
049100
030E00
000000
1F07C0
108820
108420
108420
110420
110420
210420
290420
3687E0
210420
210420
210420
210420
210420
610410
5D07D0
410410
4205A0
427E60
43A070
422050
832050
622050
3C0FD0
13F3E0
1C0000
ENDCHAR
STARTCHAR Udieresis
ENCODING 220
SWIDTH 583 0
DWIDTH 21 0
BBX 20 34 0 -1
BITMAP
038600
0C5980
085100
045100
045100
078F00
000000
000000
1F07C0
108820
108420
108420
110420
110420
210420
290420
3687E0
210420
210420
210420
210420
210420
610410
5D07D0
410410
4205A0
427E60
43A070
422050
832050
622050
3C0FD0
13F3E0
1C0000
ENDCHAR
STARTCHAR Yacute
ENCODING 221
SWIDTH 484 0
DWIDTH 17 0
BBX 19 33 -1 0
BITMAP
001800
001600
002200
002200
004400
008800
009000
006000
000300
3C04C0
440420
820420
820820
410840
209080
117880
126480
0C2280
0C2100
044200
024200
018400
01C400
013400
011400
010800
021000
061000
041000
082000
042000
032000
00C000
ENDCHAR
STARTCHAR Thorn
ENCODING 222
SWIDTH 520 0
DWIDTH 19 0
BBX 18 25 1 0
BITMAP
3C0000
430000
460000
5E0000
518000
607000
601C00
602380
FC2040
434040
42E040
421880
421780
426180
438080
73C300
4E2400
422800
421000
426000
428000
430000
820000
820000
7E0000
ENDCHAR
STARTCHAR germandbls
ENCODING 223
SWIDTH 884 0
DWIDTH 32 0
BBX 32 27 0 -1
BITMAP
0004000C
23FA23F2
3C823C82
5C815C81
64826482
421E423E
C3E0C3C0
41004100
21802100
10801080
13401340
1C401C40
08200840
04200C20
04100410
02080208
02680268
01880188
01040104
02820282
7DC17FC3
81418141
81228142
81268126
80FC80FC
5F005F00
20002000
ENDCHAR
STARTCHAR agrave
ENCODING 224
SWIDTH 507 0
DWIDTH 18 0
BBX 19 34 0 0
BITMAP
038000
048000
084000
044000
024000
022000
012000
01C000
000000
07C000
042000
043000
042800
084800
084800
084400
1C4400
134400
104200
10FA00
10C200
10A200
212280
213F40
3DE020
232020
211020
421020
420FE0
43F880
820840
820840
C208C0
3C0F00
ENDCHAR
STARTCHAR aacute
ENCODING 225
SWIDTH 507 0
DWIDTH 18 0
BBX 19 34 0 0
BITMAP
000C00
001200
001100
002200
004400
004800
008800
007000
000000
07C000
042000
043000
042800
084800
084800
084400
1C4400
134400
104200
10FA00
10C200
10A200
212280
213F40
3DE020
232020
211020
421020
420FE0
43F880
820840
820840
C208C0
3C0F00
ENDCHAR
STARTCHAR acircumflex
ENCODING 226
SWIDTH 507 0
DWIDTH 18 0
BBX 19 35 0 0
BITMAP
01E000
013000
023000
022800
044800
08C400
08A200
092200
061C00
000000
07C000
042000
043000
042800
084800
084800
084400
1C4400
134400
104200
10FA00
10C200
10A200
212280
213F40
3DE020
232020
211020
421020
420FE0
43F880
820840
820840
C208C0
3C0F00
ENDCHAR
STARTCHAR atilde
ENCODING 227
SWIDTH 507 0
DWIDTH 18 0
BBX 19 35 0 0
BITMAP
03C700
044880
046880
08A900
191100
118A00
228A00
144C00
0C7C00
000000
07C000
042000
043000
042800
084800
084800
084400
1C4400
134400
104200
10FA00
10C200
10A200
212280
213F40
3DE020
232020
211020
421020
420FE0
43F880
820840
820840
C208C0
3C0F00
ENDCHAR
STARTCHAR adieresis
ENCODING 228
SWIDTH 507 0
DWIDTH 18 0
BBX 19 33 0 0
BITMAP
070C00
18B300
10A200
08A200
08A200
0F1E00
000000
000000
07C000
042000
043000
042800
084800
084800
084400
1C4400
134400
104200
10FA00
10C200
10A200
212280
213F40
3DE020
232020
211020
421020
420FE0
43F880
820840
820840
C208C0
3C0F00
ENDCHAR
STARTCHAR aring
ENCODING 229
SWIDTH 507 0
DWIDTH 18 0
BBX 19 36 0 0
BITMAP
01F800
022800
022400
046400
08A200
09F200
071C00
040400
05E400
021800
000000
07C000
042000
043000
042800
084800
084800
084400
1C4400
134400
104200
10FA00
10C200
10A200
212280
213F40
3DE020
232020
211020
421020
420FE0
43F880
820840
820840
C208C0
3C0F00
ENDCHAR
STARTCHAR ae
ENCODING 230
SWIDTH 797 0
DWIDTH 29 0
BBX 30 25 -1 0
BITMAP
0003FFF8
003E0A08
00221204
00211204
00411204
00421DF8
00821200
01069000
01E77000
021A1080
020A1F40
02121040
04121040
0C221040
0C3E1E40
0A43F180
11421000
10C21000
20821F10
61FE12E8
41021208
82021208
42041408
22041FC8
1C03E030
ENDCHAR
STARTCHAR ccedilla
ENCODING 231
SWIDTH 515 0
DWIDTH 19 0
BBX 19 34 0 -8
BITMAP
080000
17F000
101FC0
101040
101040
102040
1FCC40
10B380
108000
3E8000
208000
210000
210000
210000
210000
310000
2F0000
210000
210080
427F40
43A040
422020
822020
762040
280FC0
37F800
184800
004800
004400
03C400
043800
043800
04C000
030000
ENDCHAR
STARTCHAR egrave
ENCODING 232
SWIDTH 490 0
DWIDTH 18 0
BBX 17 35 1 0
BITMAP
038000
0C8000
088000
048000
044000
026000
024000
018000
000000
000000
7FFF00
424100
424080
424080
424100
43BF00
424000
520000
EE0000
421000
43E800
420800
420800
420800
43C800
7E3000
420000
420000
43E200
425D00
424100
824100
828100
83FB00
7C0600
ENDCHAR
STARTCHAR eacute
ENCODING 233
SWIDTH 490 0
DWIDTH 18 0
BBX 17 35 1 0
BITMAP
003000
004800
004800
008800
011000
012000
024000
01C000
000000
000000
7FFF00
424100
424080
424080
424100
43BF00
424000
520000
EE0000
421000
43E800
420800
420800
420800
43C800
7E3000
420000
420000
43E200
425D00
424100
824100
828100
83FB00
7C0600
ENDCHAR
STARTCHAR ecircumflex
ENCODING 234
SWIDTH 490 0
DWIDTH 18 0
BBX 17 35 1 0
BITMAP
03C000
026000
046000
045000
089000
118800
124400
124400
0C3800
000000
7FFF00
424100
424080
424080
424100
43BF00
424000
520000
EE0000
421000
43E800
420800
420800
420800
43C800
7E3000
420000
420000
43E200
425D00
424100
824100
828100
83FB00
7C0600
ENDCHAR
STARTCHAR edieresis
ENCODING 235
SWIDTH 490 0
DWIDTH 18 0
BBX 17 33 1 0
BITMAP
0E1800
316600
214400
124400
124400
1E3800
000000
000000
7FFF00
424100
424080
424080
424100
43BF00
424000
520000
EE0000
421000
43E800
420800
420800
420800
43C800
7E3000
420000
420000
43E200
425D00
424100
824100
828100
83FB00
7C0600
ENDCHAR
STARTCHAR igrave
ENCODING 236
SWIDTH 266 0
DWIDTH 10 0
BBX 9 35 0 0
BITMAP
7800
8800
8800
4800
4400
2400
2400
1800
0000
0000
3F00
2180
2100
2100
2100
2100
2100
3900
6700
2100
2100
2100
2100
2100
2100
3F00
2100
2100
2100
2100
2100
4100
4100
4100
3E00
ENDCHAR
STARTCHAR iacute
ENCODING 237
SWIDTH 266 0
DWIDTH 10 0
BBX 10 35 1 0
BITMAP
0300
0280
0440
0880
0900
1200
1200
0C00
0000
0000
7E00
4300
4200
4200
4200
4200
4200
7200
CE00
4200
4200
4200
4200
4200
4200
7E00
4200
4200
4200
4200
4200
8200
8200
8200
7C00
ENDCHAR
STARTCHAR icircumflex
ENCODING 238
SWIDTH 266 0
DWIDTH 10 0
BBX 11 35 0 0
BITMAP
1E00
1300
2100
2280
4480
8C40
8A20
9220
71C0
0000
3F00
2180
2100
2100
2100
2100
2100
3900
6700
2100
2100
2100
2100
2100
2100
3F00
2100
2100
2100
2100
2100
4100
4100
4100
3E00
ENDCHAR
STARTCHAR idieresis
ENCODING 239
SWIDTH 266 0
DWIDTH 10 0
BBX 12 33 -1 0
BITMAP
10C0
CD30
8910
8910
8910
78E0
0000
0000
1F80
10C0
1080
1080
1080
1080
1080
1C80
3380
1080
1080
1080
1080
1080
1080
1F80
1080
1080
1080
1080
1080
2080
2080
2080
1F00
ENDCHAR
STARTCHAR eth
ENCODING 240
SWIDTH 669 0
DWIDTH 24 0
BBX 25 27 -1 -1
BITMAP
000E0000
00710000
00A08000
00A0C000
00A06000
00581000
008C1800
00862C00
00A74400
00DB0300
30A4C080
4BD42080
80141080
80141980
40143E80
7FB46080
00FA8100
0085C200
00862400
00842800
00841800
00843000
00844000
00848000
01878000
007D0000
00060000
ENDCHAR
STARTCHAR ntilde
ENCODING 241
SWIDTH 598 0
DWIDTH 22 0
BBX 20 35 1 0
BITMAP
01E380
013240
023440
026C40
044880
08C500
092300
092600
061E00
000000
7E07E0
438430
428420
428420
428420
424420
426420
422420
FBEFA0
421420
421420
421420
430C20
430420
428C20
7EB3E0
42C220
424220
424120
422120
4220A0
4220A0
8210A0
821320
7C07C0
ENDCHAR
STARTCHAR ograve
ENCODING 242
SWIDTH 612 0
DWIDTH 22 0
BBX 22 35 0 -1
BITMAP
007000
009000
011000
008800
004800
004400
002400
003800
080000
17F000
101FF0
101050
101050
102060
1FCC60
10B390
108210
3E83D0
208410
210210
210210
210210
210210
310208
2F03E8
210208
210148
423FE8
43D018
421018
821018
76101C
2807F0
37F800
180000
ENDCHAR
STARTCHAR oacute
ENCODING 243
SWIDTH 612 0
DWIDTH 22 0
BBX 22 35 0 -1
BITMAP
000700
000480
000880
000880
001100
002200
002400
001C00
080000
17F000
101FF0
101050
101050
102060
1FCC60
10B390
108210
3E83D0
208410
210210
210210
210210
210210
310208
2F03E8
210208
210148
423FE8
43D018
421018
821018
76101C
2807F0
37F800
180000
ENDCHAR
STARTCHAR ocircumflex
ENCODING 244
SWIDTH 612 0
DWIDTH 22 0
BBX 22 36 0 -1
BITMAP
003C00
004C00
004600
008A00
011100
022980
022880
024480
01C700
080000
17F000
101FF0
101050
101050
102060
1FCC60
10B390
108210
3E83D0
208410
210210
210210
210210
210210
310208
2F03E8
210208
210148
423FE8
43D018
421018
821018
76101C
2807F0
37F800
180000
ENDCHAR
STARTCHAR otilde
ENCODING 245
SWIDTH 612 0
DWIDTH 22 0
BBX 22 36 0 -1
BITMAP
0078E0
009910
008910
011620
022240
045240
045180
048980
038F00
080000
17F000
101FF0
101050
101050
102060
1FCC60
10B390
108210
3E83D0
208410
210210
210210
210210
210210
310208
2F03E8
210208
210148
423FE8
43D018
421018
821018
76101C
2807F0
37F800
180000
ENDCHAR
STARTCHAR odieresis
ENCODING 246
SWIDTH 612 0
DWIDTH 22 0
BBX 22 34 0 -1
BITMAP
018600
067980
044880
044880
044900
03CF00
000000
080000
17F000
101FF0
101050
101050
102060
1FCC60
10B390
108210
3E83D0
208410
210210
210210
210210
210210
310208
2F03E8
210208
210148
423FE8
43D018
421018
821018
76101C
2807F0
37F800
180000
ENDCHAR
STARTCHAR divide
ENCODING 247
SWIDTH 457 0
DWIDTH 16 0
BBX 15 20 1 2
BITMAP
07C0
0840
0440
0440
0440
0380
0000
FFFC
8104
8082
8102
8104
FFFC
4000
0300
0C40
0440
0440
0440
0780
ENDCHAR
STARTCHAR oslash
ENCODING 248
SWIDTH 612 0
DWIDTH 22 0
BBX 22 27 0 -1
BITMAP
080000
17F1C0
101F20
101210
101210
102410
1FCC20
10B850
109050
3EBCD0
20A290
212110
214210
214210
218610
310A08
2F8BE8
22CA08
223148
443FE8
483018
485018
909018
60901C
2107F0
31F800
1F0000
ENDCHAR
STARTCHAR ugrave
ENCODING 249
SWIDTH 583 0
DWIDTH 21 0
BBX 20 35 0 -1
BITMAP
00E000
012000
022000
012000
011000
009000
005800
007000
000000
1F07C0
108820
108420
108420
110420
110420
210420
290420
3687E0
210420
210420
210420
210420
210420
610410
5D07D0
410410
4205A0
427E60
43A070
422050
832050
622050
3C0FD0
13F3E0
1C0000
ENDCHAR
STARTCHAR uacute
ENCODING 250
SWIDTH 583 0
DWIDTH 21 0
BBX 20 35 0 -1
BITMAP
000C00
001200
001100
002200
002400
00C800
004800
007000
000000
1F07C0
108820
108420
108420
110420
110420
210420
290420
3687E0
210420
210420
210420
210420
210420
610410
5D07D0
410410
4205A0
427E60
43A070
422050
832050
622050
3C0FD0
13F3E0
1C0000
ENDCHAR
STARTCHAR ucircumflex
ENCODING 251
SWIDTH 583 0
DWIDTH 21 0
BBX 20 36 0 -1
BITMAP
00F000
009800
011800
011400
022400
046200
045100
049100
030E00
000000
1F07C0
108820
108420
108420
110420
110420
210420
290420
3687E0
210420
210420
210420
210420
210420
610410
5D07D0
410410
4205A0
427E60
43A070
422050
832050
622050
3C0FD0
13F3E0
1C0000
ENDCHAR
STARTCHAR udieresis
ENCODING 252
SWIDTH 583 0
DWIDTH 21 0
BBX 20 34 0 -1
BITMAP
038600
0C5980
085100
045100
045100
078F00
000000
000000
1F07C0
108820
108420
108420
110420
110420
210420
290420
3687E0
210420
210420
210420
210420
210420
610410
5D07D0
410410
4205A0
427E60
43A070
422050
832050
622050
3C0FD0
13F3E0
1C0000
ENDCHAR
STARTCHAR yacute
ENCODING 253
SWIDTH 484 0
DWIDTH 17 0
BBX 19 33 -1 0
BITMAP
001800
001600
002200
002200
004400
008800
009000
006000
000300
3C04C0
440420
820420
820820
410840
209080
117880
126480
0C2280
0C2100
044200
024200
018400
01C400
013400
011400
010800
021000
061000
041000
082000
042000
032000
00C000
ENDCHAR
STARTCHAR thorn
ENCODING 254
SWIDTH 520 0
DWIDTH 19 0
BBX 18 25 1 0
BITMAP
3C0000
430000
460000
5E0000
518000
607000
601C00
602380
FC2040
434040
42E040
421880
421780
426180
438080
73C300
4E2400
422800
421000
426000
428000
430000
820000
820000
7E0000
ENDCHAR
STARTCHAR ydieresis
ENCODING 255
SWIDTH 484 0
DWIDTH 17 0
BBX 19 32 -1 0
BITMAP
060C00
18B300
08A100
089200
089200
0F1E00
000000
000300
3C04C0
440420
820420
820820
410840
209080
117880
126480
0C2280
0C2100
044200
024200
018400
01C400
013400
011400
010800
021000
061000
041000
082000
042000
032000
00C000
ENDCHAR
STARTCHAR Amacron
ENCODING 256
SWIDTH 507 0
DWIDTH 18 0
BBX 19 31 0 0
BITMAP
07B800
044400
080400
080400
07F800
000000
07C000
042000
043000
042800
084800
084800
084400
1C4400
134400
104200
10FA00
10C200
10A200
212280
213F40
3DE020
232020
211020
421020
420FE0
43F880
820840
820840
C208C0
3C0F00
ENDCHAR
STARTCHAR amacron
ENCODING 257
SWIDTH 507 0
DWIDTH 18 0
BBX 19 31 0 0
BITMAP
07B800
044400
080400
080400
07F800
000000
07C000
042000
043000
042800
084800
084800
084400
1C4400
134400
104200
10FA00
10C200
10A200
212280
213F40
3DE020
232020
211020
421020
420FE0
43F880
820840
820840
C208C0
3C0F00
ENDCHAR
STARTCHAR Abreve
ENCODING 258
SWIDTH 507 0
DWIDTH 18 0
BBX 19 35 0 0
BITMAP
060800
191600
112200
092200
093400
09CC00
090C00
0F0800
03F000
000000
07C000
042000
043000
042800
084800
084800
084400
1C4400
134400
104200
10FA00
10C200
10A200
212280
213F40
3DE020
232020
211020
421020
420FE0
43F880
820840
820840
C208C0
3C0F00
ENDCHAR
STARTCHAR abreve
ENCODING 259
SWIDTH 507 0
DWIDTH 18 0
BBX 19 35 0 0
BITMAP
060800
191600
112200
092200
093400
09CC00
090C00
0F0800
03F000
000000
07C000
042000
043000
042800
084800
084800
084400
1C4400
134400
104200
10FA00
10C200
10A200
212280
213F40
3DE020
232020
211020
421020
420FE0
43F880
820840
820840
C208C0
3C0F00
ENDCHAR
STARTCHAR Aogonek
ENCODING 260
SWIDTH 507 0
DWIDTH 18 0
BBX 19 33 0 -8
BITMAP
07C000
042000
043000
042800
084800
084800
084400
1C4400
134400
104200
10FA00
10C200
10A200
212280
213F40
3DE020
232020
211020
421020
420FE0
43F880
820840
820840
C208C0
3C0F80
000900
000900
001180
000E40
000420
000220
000140
000080
ENDCHAR
STARTCHAR aogonek
ENCODING 261
SWIDTH 507 0
DWIDTH 18 0
BBX 19 33 0 -8
BITMAP
07C000
042000
043000
042800
084800
084800
084400
1C4400
134400
104200
10FA00
10C200
10A200
212280
213F40
3DE020
232020
211020
421020
420FE0
43F880
820840
820840
C208C0
3C0F80
000900
000900
001180
000E40
000420
000220
000140
000080
ENDCHAR
STARTCHAR Cacute
ENCODING 262
SWIDTH 515 0
DWIDTH 19 0
BBX 19 35 0 -1
BITMAP
000C00
000B00
001100
001100
002200
004400
004800
003800
080000
17F000
101FC0
101040
101040
102040
1FCC40
10B380
108000
3E8000
208000
210000
210000
210000
210000
310000
2F0000
210000
210080
427F40
43A040
422020
822020
762040
280FC0
37F000
180000
ENDCHAR
STARTCHAR cacute
ENCODING 263
SWIDTH 515 0
DWIDTH 19 0
BBX 19 35 0 -1
BITMAP
000C00
000B00
001100
001100
002200
004400
004800
003800
080000
17F000
101FC0
101040
101040
102040
1FCC40
10B380
108000
3E8000
208000
210000
210000
210000
210000
310000
2F0000
210000
210080
427F40
43A040
422020
822020
762040
280FC0
37F000
180000
ENDCHAR
STARTCHAR Ccircumflex
ENCODING 264
SWIDTH 515 0
DWIDTH 19 0
BBX 19 36 0 -1
BITMAP
007800
004C00
008C00
008A00
011200
023100
024880
024880
018700
080000
17F000
101FC0
101040
101040
102040
1FCC40
10B380
108000
3E8000
208000
210000
210000
210000
210000
310000
2F0000
210000
210080
427F40
43A040
422020
822020
762040
280FC0
37F000
180000
ENDCHAR
STARTCHAR ccircumflex
ENCODING 265
SWIDTH 515 0
DWIDTH 19 0
BBX 19 36 0 -1
BITMAP
007800
004C00
008C00
008A00
011200
023100
024880
024880
018700
080000
17F000
101FC0
101040
101040
102040
1FCC40
10B380
108000
3E8000
208000
210000
210000
210000
210000
310000
2F0000
210000
210080
427F40
43A040
422020
822020
762040
280FC0
37F000
180000
ENDCHAR
STARTCHAR Cdotaccent
ENCODING 266
SWIDTH 515 0
DWIDTH 19 0
BBX 19 33 0 -1
BITMAP
003800
00C400
008400
004800
004400
007800
080000
17F000
101FC0
101040
101040
102040
1FCC40
10B380
108000
3E8000
208000
210000
210000
210000
210000
310000
2F0000
210000
210080
427F40
43A040
422020
822020
762040
280FC0
37F000
180000
ENDCHAR
STARTCHAR cdotaccent
ENCODING 267
SWIDTH 515 0
DWIDTH 19 0
BBX 19 33 0 -1
BITMAP
003800
00C400
008400
004800
004400
007800
080000
17F000
101FC0
101040
101040
102040
1FCC40
10B380
108000
3E8000
208000
210000
210000
210000
210000
310000
2F0000
210000
210080
427F40
43A040
422020
822020
762040
280FC0
37F000
180000
ENDCHAR
STARTCHAR Ccaron
ENCODING 268
SWIDTH 515 0
DWIDTH 19 0
BBX 19 36 0 -1
BITMAP
03C700
024880
022880
013100
011200
009400
008C00
009800
007800
080000
17F000
101FC0
101040
101040
102040
1FCC40
10B380
108000
3E8000
208000
210000
210000
210000
210000
310000
2F0000
210000
210080
427F40
43A040
422020
822020
762040
280FC0
37F000
180000
ENDCHAR
STARTCHAR ccaron
ENCODING 269
SWIDTH 515 0
DWIDTH 19 0
BBX 19 36 0 -1
BITMAP
03C700
024880
022880
013100
011200
009400
008C00
009800
007800
080000
17F000
101FC0
101040
101040
102040
1FCC40
10B380
108000
3E8000
208000
210000
210000
210000
210000
310000
2F0000
210000
210080
427F40
43A040
422020
822020
762040
280FC0
37F000
180000
ENDCHAR
STARTCHAR Dcaron
ENCODING 270
SWIDTH 520 0
DWIDTH 19 0
BBX 18 37 1 -1
BITMAP
1E3800
124400
114400
098800
089000
045000
046000
02E000
01C000
000000
070000
790000
508000
504000
502000
481800
440800
421400
532200
EE8100
4240C0
423040
421840
420880
421740
422040
7EC080
43E300
431200
421400
420800
421000
822000
824000
828000
7D0000
030000
ENDCHAR
STARTCHAR dcaron
ENCODING 271
SWIDTH 520 0
DWIDTH 19 0
BBX 18 37 1 -1
BITMAP
1E3800
124400
114400
098800
089000
045000
046000
02E000
01C000
000000
070000
790000
508000
504000
502000
481800
440800
421400
532200
EE8100
4240C0
423040
421840
420880
421740
422040
7EC080
43E300
431200
421400
420800
421000
822000
824000
828000
7D0000
030000
ENDCHAR
STARTCHAR Dcroat
ENCODING 272
SWIDTH 669 0
DWIDTH 24 0
BBX 25 27 -1 -1
BITMAP
000E0000
00710000
00A08000
00A0C000
00A06000
00581000
008C1800
00862C00
00A74400
00DB0300
30A4C080
4BD42080
80141080
80141980
40143E80
7FB46080
00FA8100
0085C200
00862400
00842800
00841800
00843000
00844000
00848000
01878000
007D0000
00060000
ENDCHAR
STARTCHAR dcroat
ENCODING 273
SWIDTH 669 0
DWIDTH 24 0
BBX 25 27 -1 -1
BITMAP
000E0000
00710000
00A08000
00A0C000
00A06000
00581000
008C1800
00862C00
00A74400
00DB0300
30A4C080
4BD42080
80141080
80141980
40143E80
7FB46080
00FA8100
0085C200
00862400
00842800
00841800
00843000
00844000
00848000
01878000
007D0000
00060000
ENDCHAR
STARTCHAR Emacron
ENCODING 274
SWIDTH 490 0
DWIDTH 18 0
BBX 17 32 1 0
BITMAP
0F7000
109000
100800
100800
0FF000
000000
000000
7FFF00
424100
424080
424080
424100
43BF00
424000
520000
EE0000
421000
43E800
420800
420800
420800
43C800
7E3000
420000
420000
43E200
425D00
424100
824100
828100
83FB00
7C0600
ENDCHAR
STARTCHAR emacron
ENCODING 275
SWIDTH 490 0
DWIDTH 18 0
BBX 17 32 1 0
BITMAP
0F7000
109000
100800
100800
0FF000
000000
000000
7FFF00
424100
424080
424080
424100
43BF00
424000
520000
EE0000
421000
43E800
420800
420800
420800
43C800
7E3000
420000
420000
43E200
425D00
424100
824100
828100
83FB00
7C0600
ENDCHAR
STARTCHAR Ebreve
ENCODING 276
SWIDTH 490 0
DWIDTH 18 0
BBX 17 35 1 0
BITMAP
0C1000
122C00
122200
122400
117400
09D800
090800
0E1800
03F000
000000
7FFF00
424100
424080
424080
424100
43BF00
424000
520000
EE0000
421000
43E800
420800
420800
420800
43C800
7E3000
420000
420000
43E200
425D00
424100
824100
828100
83FB00
7C0600
ENDCHAR
STARTCHAR ebreve
ENCODING 277
SWIDTH 490 0
DWIDTH 18 0
BBX 17 35 1 0
BITMAP
0C1000
122C00
122200
122400
117400
09D800
090800
0E1800
03F000
000000
7FFF00
424100
424080
424080
424100
43BF00
424000
520000
EE0000
421000
43E800
420800
420800
420800
43C800
7E3000
420000
420000
43E200
425D00
424100
824100
828100
83FB00
7C0600
ENDCHAR
STARTCHAR Edotaccent
ENCODING 278
SWIDTH 490 0
DWIDTH 18 0
BBX 17 33 1 0
BITMAP
008000
066000
044000
044000
024000
03C000
000000
000000
7FFF00
424100
424080
424080
424100
43BF00
424000
520000
EE0000
421000
43E800
420800
420800
420800
43C800
7E3000
420000
420000
43E200
425D00
424100
824100
828100
83FB00
7C0600
ENDCHAR
STARTCHAR edotaccent
ENCODING 279
SWIDTH 490 0
DWIDTH 18 0
BBX 17 33 1 0
BITMAP
008000
066000
044000
044000
024000
03C000
000000
000000
7FFF00
424100
424080
424080
424100
43BF00
424000
520000
EE0000
421000
43E800
420800
420800
420800
43C800
7E3000
420000
420000
43E200
425D00
424100
824100
828100
83FB00
7C0600
ENDCHAR
STARTCHAR Eogonek
ENCODING 280
SWIDTH 490 0
DWIDTH 18 0
BBX 17 33 1 -8
BITMAP
7FFF00
424100
424080
424080
424100
43BF00
424000
520000
EE0000
421000
43E800
420800
420800
420800
43C800
7E3000
420000
420000
43E200
425D00
424100
824100
828100
83FB00
7C4600
004800
008800
008C00
007200
002100
001100
000A00
000400
ENDCHAR
STARTCHAR eogonek
ENCODING 281
SWIDTH 490 0
DWIDTH 18 0
BBX 17 33 1 -8
BITMAP
7FFF00
424100
424080
424080
424100
43BF00
424000
520000
EE0000
421000
43E800
420800
420800
420800
43C800
7E3000
420000
420000
43E200
425D00
424100
824100
828100
83FB00
7C4600
004800
008800
008C00
007200
002100
001100
000A00
000400
ENDCHAR
STARTCHAR Ecaron
ENCODING 282
SWIDTH 490 0
DWIDTH 18 0
BBX 17 35 1 0
BITMAP
0E3C00
112400
094400
08C800
048800
045000
026000
026000
01C000
000000
7FFF00
424100
424080
424080
424100
43BF00
424000
520000
EE0000
421000
43E800
420800
420800
420800
43C800
7E3000
420000
420000
43E200
425D00
424100
824100
828100
83FB00
7C0600
ENDCHAR
STARTCHAR ecaron
ENCODING 283
SWIDTH 490 0
DWIDTH 18 0
BBX 17 35 1 0
BITMAP
0E3C00
112400
094400
08C800
048800
045000
026000
026000
01C000
000000
7FFF00
424100
424080
424080
424100
43BF00
424000
520000
EE0000
421000
43E800
420800
420800
420800
43C800
7E3000
420000
420000
43E200
425D00
424100
824100
828100
83FB00
7C0600
ENDCHAR
STARTCHAR Gcircumflex
ENCODING 284
SWIDTH 557 0
DWIDTH 20 0
BBX 20 36 0 -1
BITMAP
007800
008800
008C00
011400
012200
023100
045080
024900
018E00
080000
17F000
101FC0
101040
101040
102040
1FCC40
10B380
108000
3E8000
208000
2103C0
210C20
210420
210420
310420
2F0420
2105A0
210660
427C20
43A420
422420
822420
762410
280C20
37F3C0
180000
ENDCHAR
STARTCHAR gcircumflex
ENCODING 285
SWIDTH 557 0
DWIDTH 20 0
BBX 20 36 0 -1
BITMAP
007800
008800
008C00
011400
012200
023100
045080
024900
018E00
080000
17F000
101FC0
101040
101040
102040
1FCC40
10B380
108000
3E8000
208000
2103C0
210C20
210420
210420
310420
2F0420
2105A0
210660
427C20
43A420
422420
822420
762410
280C20
37F3C0
180000
ENDCHAR
STARTCHAR Gbreve
ENCODING 286
SWIDTH 557 0
DWIDTH 20 0
BBX 20 36 0 -1
BITMAP
010400
068B00
048880
048900
024D00
027500
024200
038200
00FC00
080000
17F000
101FC0
101040
101040
102040
1FCC40
10B380
108000
3E8000
208000
2103C0
210C20
210420
210420
310420
2F0420
2105A0
210660
427C20
43A420
422420
822420
762410
280C20
37F3C0
180000
ENDCHAR
STARTCHAR gbreve
ENCODING 287
SWIDTH 557 0
DWIDTH 20 0
BBX 20 36 0 -1
BITMAP
010400
068B00
048880
048900
024D00
027500
024200
038200
00FC00
080000
17F000
101FC0
101040
101040
102040
1FCC40
10B380
108000
3E8000
208000
2103C0
210C20
210420
210420
310420
2F0420
2105A0
210660
427C20
43A420
422420
822420
762410
280C20
37F3C0
180000
ENDCHAR
STARTCHAR Gdotaccent
ENCODING 288
SWIDTH 557 0
DWIDTH 20 0
BBX 20 33 0 -1
BITMAP
003800
00C400
008400
004400
004400
007800
080000
17F000
101FC0
101040
101040
102040
1FCC40
10B380
108000
3E8000
208000
2103C0
210C20
210420
210420
310420
2F0420
2105A0
210660
427C20
43A420
422420
822420
762410
280C20
37F3C0
180000
ENDCHAR
STARTCHAR gdotaccent
ENCODING 289
SWIDTH 557 0
DWIDTH 20 0
BBX 20 33 0 -1
BITMAP
003800
00C400
008400
004400
004400
007800
080000
17F000
101FC0
101040
101040
102040
1FCC40
10B380
108000
3E8000
208000
2103C0
210C20
210420
210420
310420
2F0420
2105A0
210660
427C20
43A420
422420
822420
762410
280C20
37F3C0
180000
ENDCHAR
STARTCHAR Gcommaaccent
ENCODING 290
SWIDTH 557 0
DWIDTH 20 0
BBX 20 35 0 -9
BITMAP
080000
17F000
101FC0
101040
101040
102040
1FCC40
10B380
108000
3E8000
208000
2103C0
210C20
210420
210420
310420
2F0420
2105A0
210660
427C20
43A420
422420
822420
762410
280C20
37F3C0
180000
006000
009000
008800
011000
012000
064000
024000
038000
ENDCHAR
STARTCHAR gcommaaccent
ENCODING 291
SWIDTH 557 0
DWIDTH 20 0
BBX 20 35 0 -9
BITMAP
080000
17F000
101FC0
101040
101040
102040
1FCC40
10B380
108000
3E8000
208000
2103C0
210C20
210420
210420
310420
2F0420
2105A0
210660
427C20
43A420
422420
822420
762410
280C20
37F3C0
180000
006000
009000
008800
011000
012000
064000
024000
038000
ENDCHAR
STARTCHAR Hcircumflex
ENCODING 292
SWIDTH 611 0
DWIDTH 22 0
BBX 21 35 1 0
BITMAP
00F000
011000
011800
022800
024400
046200
089100
049200
031C00
000100
7E06C0
430820
420820
420820
420420
420420
420820
720820
CE0FA0
420820
420840
420460
4204D0
420708
437A08
7F8208
428208
4281F0
429E40
426840
438840
820820
820820
820860
7C0780
ENDCHAR
STARTCHAR hcircumflex
ENCODING 293
SWIDTH 611 0
DWIDTH 22 0
BBX 21 35 1 0
BITMAP
00F000
011000
011800
022800
024400
046200
089100
049200
031C00
000100
7E06C0
430820
420820
420820
420420
420420
420820
720820
CE0FA0
420820
420840
420460
4204D0
420708
437A08
7F8208
428208
4281F0
429E40
426840
438840
820820
820820
820860
7C0780
ENDCHAR
STARTCHAR Hbar
ENCODING 294
SWIDTH 706 0
DWIDTH 25 0
BBX 24 25 1 0
BITMAP
1F81F8
104208
108208
108108
70E7CA
90D8BD
90C081
948081
9B8081
70FFFD
10810A
10810C
108136
1081C2
10BE82
1FE082
10A082
10A07C
10A788
109A08
10E208
108208
208208
308218
1F01E0
ENDCHAR
STARTCHAR hbar
ENCODING 295
SWIDTH 706 0
DWIDTH 25 0
BBX 24 25 1 0
BITMAP
1F81F8
104208
108208
108108
70E7CA
90D8BD
90C081
948081
9B8081
70FFFD
10810A
10810C
108136
1081C2
10BE82
1FE082
10A082
10A07C
10A788
109A08
10E208
108208
208208
308218
1F01E0
ENDCHAR
STARTCHAR Itilde
ENCODING 296
SWIDTH 266 0
DWIDTH 10 0
BBX 15 35 -2 0
BITMAP
0F1C
1122
11A2
22C4
4448
CA28
8A30
5130
31E0
0000
0FC0
0860
0840
0840
0840
0840
0840
0E40
19C0
0840
0840
0840
0840
0840
0840
0FC0
0840
0840
0840
0840
0840
1040
1040
1040
0F80
ENDCHAR
STARTCHAR itilde
ENCODING 297
SWIDTH 266 0
DWIDTH 10 0
BBX 15 35 -2 0
BITMAP
0F1C
1122
11A2
22C4
4448
CA28
8A30
5130
31E0
0000
0FC0
0860
0840
0840
0840
0840
0840
0E40
19C0
0840
0840
0840
0840
0840
0840
0FC0
0840
0840
0840
0840
0840
1040
1040
1040
0F80
ENDCHAR
STARTCHAR Imacron
ENCODING 298
SWIDTH 266 0
DWIDTH 10 0
BBX 10 31 0 0
BITMAP
7B80
4440
8040
8040
7F80
0000
3F00
2180
2100
2100
2100
2100
2100
3900
6700
2100
2100
2100
2100
2100
2100
3F00
2100
2100
2100
2100
2100
4100
4100
4100
3E00
ENDCHAR
STARTCHAR imacron
ENCODING 299
SWIDTH 266 0
DWIDTH 10 0
BBX 10 31 0 0
BITMAP
7B80
4440
8040
8040
7F80
0000
3F00
2180
2100
2100
2100
2100
2100
3900
6700
2100
2100
2100
2100
2100
2100
3F00
2100
2100
2100
2100
2100
4100
4100
4100
3E00
ENDCHAR
STARTCHAR Ibreve
ENCODING 300
SWIDTH 266 0
DWIDTH 10 0
BBX 12 35 -1 0
BITMAP
3040
48B0
8890
4910
49A0
4E60
4460
7840
1FC0
0000
1F80
10C0
1080
1080
1080
1080
1080
1C80
3380
1080
1080
1080
1080
1080
1080
1F80
1080
1080
1080
1080
1080
2080
2080
2080
1F00
ENDCHAR
STARTCHAR ibreve
ENCODING 301
SWIDTH 266 0
DWIDTH 10 0
BBX 12 35 -1 0
BITMAP
3040
48B0
8890
4910
49A0
4E60
4460
7840
1FC0
0000
1F80
10C0
1080
1080
1080
1080
1080
1C80
3380
1080
1080
1080
1080
1080
1080
1F80
1080
1080
1080
1080
1080
2080
2080
2080
1F00
ENDCHAR
STARTCHAR Iogonek
ENCODING 302
SWIDTH 266 0
DWIDTH 10 0
BBX 9 34 0 -9
BITMAP
3F00
2180
2100
2100
2100
2100
2100
3900
6700
2100
2100
2100
2100
2100
2100
3F00
2100
2100
2100
2100
2100
4100
4100
4100
3E00
2400
4400
4800
CC00
7300
3080
0900
0700
0400
ENDCHAR
STARTCHAR iogonek
ENCODING 303
SWIDTH 266 0
DWIDTH 10 0
BBX 9 34 0 -9
BITMAP
3F00
2180
2100
2100
2100
2100
2100
3900
6700
2100
2100
2100
2100
2100
2100
3F00
2100
2100
2100
2100
2100
4100
4100
4100
3E00
2400
4400
4800
CC00
7300
3080
0900
0700
0400
ENDCHAR
STARTCHAR Idotaccent
ENCODING 304
SWIDTH 266 0
DWIDTH 10 0
BBX 8 33 1 0
BITMAP
08
66
44
44
24
3C
00
00
7E
43
42
42
42
42
42
72
CE
42
42
42
42
42
42
7E
42
42
42
42
42
82
82
82
7C
ENDCHAR
STARTCHAR dotlessi
ENCODING 305
SWIDTH 266 0
DWIDTH 10 0
BBX 8 25 1 0
BITMAP
7E
43
42
42
42
42
42
72
CE
42
42
42
42
42
42
7E
42
42
42
42
42
82
82
82
7C
ENDCHAR
STARTCHAR IJ
ENCODING 306
SWIDTH 750 0
DWIDTH 27 0
BBX 25 26 1 -1
BITMAP
7E001F00
43002080
42002080
42001080
42001100
42001100
42002100
72002880
CE003680
42002100
42002100
42002100
42382100
42442100
42842100
7E823E80
42C1A080
4220A100
42136100
42142100
42083100
82040900
82020880
82010980
7C011F00
0000E000
ENDCHAR
STARTCHAR ij
ENCODING 307
SWIDTH 749 0
DWIDTH 27 0
BBX 25 26 1 -1
BITMAP
7E001F00
43002080
42002080
42001080
42001100
42001100
42002100
72002880
CE003680
42002100
42002100
42002100
42382100
42442100
42842100
7E823E80
42C1A080
4220A100
42136100
42142100
42083100
82040900
82020880
82010980
7C011F00
0000E000
ENDCHAR
STARTCHAR Jcircumflex
ENCODING 308
SWIDTH 484 0
DWIDTH 17 0
BBX 19 36 -1 -1
BITMAP
000F00
001100
001180
002280
002440
004620
008A20
005120
0031C0
000000
001F80
001080
001080
001080
001080
001080
001080
001480
003A80
001080
001080
001080
1C1080
641080
421080
813F80
409080
205080
135080
0C3080
0C1080
040C80
020480
010880
009F00
00F000
ENDCHAR
STARTCHAR jcircumflex
ENCODING 309
SWIDTH 482 0
DWIDTH 17 0
BBX 19 36 -1 -1
BITMAP
000F00
001100
001180
002280
002440
004620
008A20
005120
0031C0
000000
001F80
001080
001080
001080
001080
001080
001080
001480
003A80
001080
001080
001080
1C1080
641080
421080
813F80
409080
205080
135080
0C3080
0C1080
040C80
020480
010880
009F00
00F000
ENDCHAR
STARTCHAR Kcommaaccent
ENCODING 310
SWIDTH 541 0
DWIDTH 20 0
BBX 19 34 1 -9
BITMAP
7E0200
430580
420440
420820
421020
422040
426080
529100
EE8A00
430200
420400
420800
421800
422400
43A400
7E4200
42CE00
437100
424100
422100
422080
8210C0
821040
821080
7C1F00
000000
018000
016000
022000
022000
044000
088000
090000
070000
ENDCHAR
STARTCHAR kcommaaccent
ENCODING 311
SWIDTH 541 0
DWIDTH 20 0
BBX 19 34 1 -9
BITMAP
7E0200
430580
420440
420820
421020
422040
426080
529100
EE8A00
430200
420400
420800
421800
422400
43A400
7E4200
42CE00
437100
424100
422100
422080
8210C0
821040
821080
7C1F00
000000
018000
016000
022000
022000
044000
088000
090000
070000
ENDCHAR
STARTCHAR kgreenlandic
ENCODING 312
SWIDTH 541 0
DWIDTH 20 0
BBX 19 25 1 0
BITMAP
7E0200
430580
420440
420820
421020
422040
426080
529100
EE8A00
430200
420400
420800
421800
422400
43A400
7E4200
42CE00
437100
424100
422100
422080
8210C0
821040
821080
7C1F00
ENDCHAR
STARTCHAR Lacute
ENCODING 313
SWIDTH 467 0
DWIDTH 17 0
BBX 17 34 1 0
BITMAP
018000
014000
022000
044000
048000
090000
090000
060000
000000
7E0000
430000
420000
420000
420000
420000
420000
720000
CE0000
420000
420000
420000
420000
420000
420000
7E0000
420000
420000
438200
42F900
428100
828080
828080
827900
7D8600
ENDCHAR
STARTCHAR lacute
ENCODING 314
SWIDTH 467 0
DWIDTH 17 0
BBX 17 34 1 0
BITMAP
018000
014000
022000
044000
048000
090000
090000
060000
000000
7E0000
430000
420000
420000
420000
420000
420000
720000
CE0000
420000
420000
420000
420000
420000
420000
7E0000
420000
420000
438200
42F900
428100
828080
828080
827900
7D8600
ENDCHAR
STARTCHAR Lcommaaccent
ENCODING 315
SWIDTH 467 0
DWIDTH 17 0
BBX 17 34 1 -9
BITMAP
7E0000
430000
420000
420000
420000
420000
420000
720000
CE0000
420000
420000
420000
420000
420000
420000
7E0000
420000
420000
438200
42F900
428100
828080
828080
827900
7D8600
000000
030000
028000
044000
088000
090000
110000
120000
0C0000
ENDCHAR
STARTCHAR lcommaaccent
ENCODING 316
SWIDTH 467 0
DWIDTH 17 0
BBX 17 34 1 -9
BITMAP
7E0000
430000
420000
420000
420000
420000
420000
720000
CE0000
420000
420000
420000
420000
420000
420000
7E0000
420000
420000
438200
42F900
428100
828080
828080
827900
7D8600
000000
030000
028000
044000
088000
090000
110000
120000
0C0000
ENDCHAR
STARTCHAR Lcaron
ENCODING 317
SWIDTH 467 0
DWIDTH 17 0
BBX 17 28 1 0
BITMAP
001C00
001200
002200
7E2400
434800
428800
42D000
422000
420000
420000
720000
CE0000
420000
420000
420000
420000
420000
420000
7E0000
420000
420000
438200
42F900
428100
828080
828080
827900
7D8600
ENDCHAR
STARTCHAR lcaron
ENCODING 318
SWIDTH 467 0
DWIDTH 17 0
BBX 17 28 1 0
BITMAP
001C00
001200
002200
7E2400
434800
428800
42D000
422000
420000
420000
720000
CE0000
420000
420000
420000
420000
420000
420000
7E0000
420000
420000
438200
42F900
428100
828080
828080
827900
7D8600
ENDCHAR
STARTCHAR Ldot
ENCODING 319
SWIDTH 611 0
DWIDTH 22 0
BBX 20 25 1 0
BITMAP
7E0000
430000
420000
420000
420000
420000
420000
720000
CE0000
4201E0
420210
420110
420110
420310
4200E0
7E0000
420000
420000
438200
42F900
428100
828080
828080
827900
7D8600
ENDCHAR
STARTCHAR ldotaccent
ENCODING 320
SWIDTH 611 0
DWIDTH 22 0
BBX 20 25 1 0
BITMAP
7E0000
430000
420000
420000
420000
420000
420000
720000
CE0000
4201E0
420210
420110
420110
420310
4200E0
7E0000
420000
420000
438200
42F900
428100
828080
828080
827900
7D8600
ENDCHAR
STARTCHAR Lslash
ENCODING 321
SWIDTH 505 0
DWIDTH 18 0
BBX 19 25 -1 0
BITMAP
07C000
082000
082000
084000
044000
084000
084000
0A4000
0DA800
087C00
384400
484400
884400
885C00
486000
7FA000
084000
084000
0878C0
085720
084820
084820
085020
1867E0
07D800
ENDCHAR
STARTCHAR lslash
ENCODING 322
SWIDTH 505 0
DWIDTH 18 0
BBX 19 25 -1 0
BITMAP
07C000
082000
082000
084000
044000
084000
084000
0A4000
0DA800
087C00
384400
484400
884400
885C00
486000
7FA000
084000
084000
0878C0
085720
084820
084820
085020
1867E0
07D800
ENDCHAR
STARTCHAR Nacute
ENCODING 323
SWIDTH 598 0
DWIDTH 22 0
BBX 20 34 1 0
BITMAP
000C00
001200
001100
002200
004400
004800
008800
007000
000000
7E07E0
438430
428420
428420
428420
424420
426420
422420
FBEFA0
421420
421420
421420
430C20
430420
428C20
7EB3E0
42C220
424220
424120
422120
4220A0
4220A0
8210A0
821320
7C07C0
ENDCHAR
STARTCHAR nacute
ENCODING 324
SWIDTH 598 0
DWIDTH 22 0
BBX 20 34 1 0
BITMAP
000C00
001200
001100
002200
004400
004800
008800
007000
000000
7E07E0
438430
428420
428420
428420
424420
426420
422420
FBEFA0
421420
421420
421420
430C20
430420
428C20
7EB3E0
42C220
424220
424120
422120
4220A0
4220A0
8210A0
821320
7C07C0
ENDCHAR
STARTCHAR Ncommaaccent
ENCODING 325
SWIDTH 598 0
DWIDTH 22 0
BBX 20 34 1 -9
BITMAP
7E07E0
438430
428420
428420
428420
424420
426420
422420
FBEFA0
421420
421420
421420
430C20
430420
428C20
7EB3E0
42C220
424220
424120
422120
4220A0
4220A0
8210A0
821320
7C07C0
000000
00C000
00B000
011000
011000
022000
044000
048000
038000
ENDCHAR
STARTCHAR ncommaaccent
ENCODING 326
SWIDTH 598 0
DWIDTH 22 0
BBX 20 34 1 -9
BITMAP
7E07E0
438430
428420
428420
428420
424420
426420
422420
FBEFA0
421420
421420
421420
430C20
430420
428C20
7EB3E0
42C220
424220
424120
422120
4220A0
4220A0
8210A0
821320
7C07C0
000000
00C000
00B000
011000
011000
022000
044000
048000
038000
ENDCHAR
STARTCHAR Ncaron
ENCODING 327
SWIDTH 598 0
DWIDTH 22 0
BBX 20 35 1 0
BITMAP
078E00
049100
045100
026200
022400
011400
011800
00A800
007000
000000
7E07E0
438430
428420
428420
428420
424420
426420
422420
FBEFA0
421420
421420
421420
430C20
430420
428C20
7EB3E0
42C220
424220
424120
422120
4220A0
4220A0
8210A0
821320
7C07C0
ENDCHAR
STARTCHAR ncaron
ENCODING 328
SWIDTH 598 0
DWIDTH 22 0
BBX 20 35 1 0
BITMAP
078E00
049100
045100
026200
022400
011400
011800
00A800
007000
000000
7E07E0
438430
428420
428420
428420
424420
426420
422420
FBEFA0
421420
421420
421420
430C20
430420
428C20
7EB3E0
42C220
424220
424120
422120
4220A0
4220A0
8210A0
821320
7C07C0
ENDCHAR
STARTCHAR napostrophe
ENCODING 329
SWIDTH 807 0
DWIDTH 29 0
BBX 28 25 0 0
BITMAP
1C3F03E0
12418410
22418410
24214210
48224220
88224220
D0422420
20411410
007DD7D0
00421430
00420C20
00430C20
00430420
00428420
00428220
007DBBD0
00414210
00424120
00422120
004220A0
00421060
00421060
00411090
00411B10
003E07E0
ENDCHAR
STARTCHAR Eng
ENCODING 330
SWIDTH 595 0
DWIDTH 21 0
BBX 19 34 1 -9
BITMAP
7F0180
428660
428420
428420
428420
424420
426420
422420
FBE420
421720
421CA0
421C20
430C20
430420
428C20
FEB220
42C220
424220
4241E0
422120
4220A0
4220A0
8210A0
821320
7C0C20
000B20
007DA0
01C0A0
1E20C0
102080
202080
100F00
11F000
0E0000
ENDCHAR
STARTCHAR eng
ENCODING 331
SWIDTH 595 0
DWIDTH 21 0
BBX 19 34 1 -9
BITMAP
7F0180
428660
428420
428420
428420
424420
426420
422420
FBE420
421720
421CA0
421C20
430C20
430420
428C20
FEB220
42C220
424220
4241E0
422120
4220A0
4220A0
8210A0
821320
7C0C20
000B20
007DA0
01C0A0
1E20C0
102080
202080
100F00
11F000
0E0000
ENDCHAR
STARTCHAR Omacron
ENCODING 332
SWIDTH 612 0
DWIDTH 22 0
BBX 22 32 0 -1
BITMAP
00EE00
011100
010100
010100
01FE00
080000
17F000
101FF0
101050
101050
102060
1FCC60
10B390
108210
3E83D0
208410
210210
210210
210210
210210
310208
2F03E8
210208
210148
423FE8
43D018
421018
821018
76101C
2807F0
37F800
180000
ENDCHAR
STARTCHAR omacron
ENCODING 333
SWIDTH 612 0
DWIDTH 22 0
BBX 22 32 0 -1
BITMAP
00EE00
011100
010100
010100
01FE00
080000
17F000
101FF0
101050
101050
102060
1FCC60
10B390
108210
3E83D0
208410
210210
210210
210210
210210
310208
2F03E8
210208
210148
423FE8
43D018
421018
821018
76101C
2807F0
37F800
180000
ENDCHAR
STARTCHAR Obreve
ENCODING 334
SWIDTH 612 0
DWIDTH 22 0
BBX 22 36 0 -1
BITMAP
018200
064580
024480
024480
024F00
023300
022300
01C300
00FE00
080000
17F000
101FF0
101050
101050
102060
1FCC60
10B390
108210
3E83D0
208410
210210
210210
210210
210210
310208
2F03E8
210208
210148
423FE8
43D018
421018
821018
76101C
2807F0
37F800
180000
ENDCHAR
STARTCHAR obreve
ENCODING 335
SWIDTH 612 0
DWIDTH 22 0
BBX 22 36 0 -1
BITMAP
018200
064580
024480
024480
024F00
023300
022300
01C300
00FE00
080000
17F000
101FF0
101050
101050
102060
1FCC60
10B390
108210
3E83D0
208410
210210
210210
210210
210210
310208
2F03E8
210208
210148
423FE8
43D018
421018
821018
76101C
2807F0
37F800
180000
ENDCHAR
STARTCHAR Ohungarumlaut
ENCODING 336
SWIDTH 612 0
DWIDTH 22 0
BBX 22 35 0 -1
BITMAP
0018C0
0024B0
002510
004530
008A20
011440
012480
00E300
080000
17F000
101FF0
101050
101050
102060
1FCC60
10B390
108210
3E83D0
208410
210210
210210
210210
210210
310208
2F03E8
210208
210148
423FE8
43D018
421018
821018
76101C
2807F0
37F800
180000
ENDCHAR
STARTCHAR ohungarumlaut
ENCODING 337
SWIDTH 612 0
DWIDTH 22 0
BBX 22 35 0 -1
BITMAP
0018C0
0024B0
002510
004530
008A20
011440
012480
00E300
080000
17F000
101FF0
101050
101050
102060
1FCC60
10B390
108210
3E83D0
208410
210210
210210
210210
210210
310208
2F03E8
210208
210148
423FE8
43D018
421018
821018
76101C
2807F0
37F800
180000
ENDCHAR
STARTCHAR OE
ENCODING 338
SWIDTH 831 0
DWIDTH 30 0
BBX 30 27 0 -1
BITMAP
08000000
17F1FFB8
101FCA44
10105204
10105204
10205204
1FCC5DF8
10B39200
10829000
3E837000
20821080
21021F40
21021040
21021020
21021040
31021E40
2F03F180
21021000
21029000
423F9F10
43E05268
42105208
82105208
76105208
280F9FC8
37F3E030
18000000
ENDCHAR
STARTCHAR oe
ENCODING 339
SWIDTH 831 0
DWIDTH 30 0
BBX 30 27 0 -1
BITMAP
08000000
17F1FFB8
101FCA44
10105204
10105204
10205204
1FCC5DF8
10B39200
10829000
3E837000
20821080
21021F40
21021040
21021020
21021040
31021E40
2F03F180
21021000
21029000
423F9F10
43E05268
42105208
82105208
76105208
280F9FC8
37F3E030
18000000
ENDCHAR
STARTCHAR Racute
ENCODING 340
SWIDTH 532 0
DWIDTH 19 0
BBX 18 35 1 -1
BITMAP
001800
001400
002200
002400
004800
008800
009000
006000
0C0000
130000
60F000
601800
602600
7021C0
4E2040
438040
427840
7A1480
822380
42C080
43B100
424C00
428800
430400
428400
FEC200
434D00
423100
422100
421080
421040
820840
820840
C60580
380200
ENDCHAR
STARTCHAR racute
ENCODING 341
SWIDTH 532 0
DWIDTH 19 0
BBX 18 35 1 -1
BITMAP
001800
001400
002200
002400
004800
008800
009000
006000
0C0000
130000
60F000
601800
602600
7021C0
4E2040
438040
427840
7A1480
822380
42C080
43B100
424C00
428800
430400
428400
FEC200
434D00
423100
422100
421080
421040
820840
820840
C60580
380200
ENDCHAR
STARTCHAR Rcommaaccent
ENCODING 342
SWIDTH 532 0
DWIDTH 19 0
BBX 18 35 1 -9
BITMAP
0C0000
130000
60F000
601800
602600
7021C0
4E2040
438040
427840
7A1480
822380
42C080
43B100
424C00
428800
430400
428400
FEC200
434D00
423100
422100
421080
421040
820840
820840
C60580
380200
018000
014000
022000
026000
048000
088000
090000
060000
ENDCHAR
STARTCHAR rcommaaccent
ENCODING 343
SWIDTH 532 0
DWIDTH 19 0
BBX 18 35 1 -9
BITMAP
0C0000
130000
60F000
601800
602600
7021C0
4E2040
438040
427840
7A1480
822380
42C080
43B100
424C00
428800
430400
428400
FEC200
434D00
423100
422100
421080
421040
820840
820840
C60580
380200
018000
014000
022000
026000
048000
088000
090000
060000
ENDCHAR
STARTCHAR Rcaron
ENCODING 344
SWIDTH 532 0
DWIDTH 19 0
BBX 18 36 1 -1
BITMAP
0F3C00
112200
08C200
08C400
044800
025000
023000
026000
01E000
0C0000
130000
60F000
601800
602600
7021C0
4E2040
438040
427840
7A1480
822380
42C080
43B100
424C00
428800
430400
428400
FEC200
434D00
423100
422100
421080
421040
820840
820840
C60580
380200
ENDCHAR
STARTCHAR rcaron
ENCODING 345
SWIDTH 532 0
DWIDTH 19 0
BBX 18 36 1 -1
BITMAP
0F3C00
112200
08C200
08C400
044800
025000
023000
026000
01E000
0C0000
130000
60F000
601800
602600
7021C0
4E2040
438040
427840
7A1480
822380
42C080
43B100
424C00
428800
430400
428400
FEC200
434D00
423100
422100
421080
421040
820840
820840
C60580
380200
ENDCHAR
STARTCHAR Sacute
ENCODING 346
SWIDTH 442 0
DWIDTH 16 0
BBX 16 36 0 -1
BITMAP
0060
0050
0088
0098
0120
0220
0240
0180
0000
0004
23FA
3C82
5C81
6482
421E
C3E0
4100
2180
1080
1340
1C40
0820
0420
0410
0208
0268
0188
0104
0282
7DC1
8141
8122
8126
80FC
5F00
2000
ENDCHAR
STARTCHAR sacute
ENCODING 347
SWIDTH 442 0
DWIDTH 16 0
BBX 16 36 0 -1
BITMAP
0060
0050
0088
0098
0120
0220
0240
0180
0000
0004
23FA
3C82
5C81
6482
421E
C3E0
4100
2180
1080
1340
1C40
0820
0420
0410
0208
0268
0188
0104
0282
7DC1
8141
8122
8126
80FC
5F00
2000
ENDCHAR
STARTCHAR Scircumflex
ENCODING 348
SWIDTH 442 0
DWIDTH 16 0
BBX 16 37 0 -1
BITMAP
03C0
0240
0460
0890
0990
1188
2244
1248
0C30
0000
0004
23FA
3C82
5C81
6482
421E
C3E0
4100
2180
1080
1340
1C40
0820
0420
0410
0208
0268
0188
0104
0282
7DC1
8141
8122
8126
80FC
5F00
2000
ENDCHAR
STARTCHAR scircumflex
ENCODING 349
SWIDTH 442 0
DWIDTH 16 0
BBX 16 37 0 -1
BITMAP
03C0
0240
0460
0890
0990
1188
2244
1248
0C30
0000
0004
23FA
3C82
5C81
6482
421E
C3E0
4100
2180
1080
1340
1C40
0820
0420
0410
0208
0268
0188
0104
0282
7DC1
8141
8122
8126
80FC
5F00
2000
ENDCHAR
STARTCHAR Scedilla
ENCODING 350
SWIDTH 442 0
DWIDTH 16 0
BBX 16 34 0 -8
BITMAP
0004
23FA
3C82
5C81
6482
421E
C3E0
4100
2180
1080
1340
1C40
0820
0420
0410
0208
0268
0188
0104
0282
7DC1
8141
8122
8126
80FC
5F10
2110
0110
0310
1DF0
1020
11C0
0E00
0400
ENDCHAR
STARTCHAR scedilla
ENCODING 351
SWIDTH 442 0
DWIDTH 16 0
BBX 16 34 0 -8
BITMAP
0004
23FA
3C82
5C81
6482
421E
C3E0
4100
2180
1080
1340
1C40
0820
0420
0410
0208
0268
0188
0104
0282
7DC1
8141
8122
8126
80FC
5F10
2110
0110
0310
1DF0
1020
11C0
0E00
0400
ENDCHAR
STARTCHAR Scaron
ENCODING 352
SWIDTH 442 0
DWIDTH 16 0
BBX 16 36 0 -1
BITMAP
1E78
2248
128C
1188
0890
08A0
0460
04C0
0380
0004
23FA
3C82
5C81
6482
421E
C3E0
4100
2180
1080
1340
1C40
0820
0420
0410
0208
0268
0188
0104
0282
7DC1
8141
8122
8126
80FC
5F00
2000
ENDCHAR
STARTCHAR scaron
ENCODING 353
SWIDTH 442 0
DWIDTH 16 0
BBX 16 36 0 -1
BITMAP
1E78
2248
128C
1188
0890
08A0
0460
04C0
0380
0004
23FA
3C82
5C81
6482
421E
C3E0
4100
2180
1080
1340
1C40
0820
0420
0410
0208
0268
0188
0104
0282
7DC1
8141
8122
8126
80FC
5F00
2000
ENDCHAR
STARTCHAR Tcommaaccent
ENCODING 354
SWIDTH 453 0
DWIDTH 16 0
BBX 17 34 0 -9
BITMAP
FFFF00
808100
808080
808080
800100
7FFF00
042000
042000
042000
07D000
042000
042000
042000
042000
042000
042000
07D000
042000
042000
042000
042000
042000
042000
0C3000
03E000
000000
030000
048000
044000
088000
090000
320000
120000
1C0000
ENDCHAR
STARTCHAR tcommaaccent
ENCODING 355
SWIDTH 453 0
DWIDTH 16 0
BBX 17 34 0 -9
BITMAP
FFFF00
808100
808080
808080
800100
7FFF00
042000
042000
042000
07D000
042000
042000
042000
042000
042000
042000
07D000
042000
042000
042000
042000
042000
042000
0C3000
03E000
000000
030000
048000
044000
088000
090000
320000
120000
1C0000
ENDCHAR
STARTCHAR Tcaron
ENCODING 356
SWIDTH 453 0
DWIDTH 16 0
BBX 17 35 0 0
BITMAP
0E3800
112400
114400
088800
048800
045000
026000
026000
01C000
000000
FFFF00
808100
808080
808080
800100
7FFF00
042000
042000
042000
07D000
042000
042000
042000
042000
042000
042000
07D000
042000
042000
042000
042000
042000
042000
0C3000
03E000
ENDCHAR
STARTCHAR tcaron
ENCODING 357
SWIDTH 453 0
DWIDTH 16 0
BBX 17 35 0 0
BITMAP
0E3800
112400
114400
088800
048800
045000
026000
026000
01C000
000000
FFFF00
808100
808080
808080
800100
7FFF00
042000
042000
042000
07D000
042000
042000
042000
042000
042000
042000
07D000
042000
042000
042000
042000
042000
042000
0C3000
03E000
ENDCHAR
STARTCHAR Tbar
ENCODING 358
SWIDTH 455 0
DWIDTH 16 0
BBX 17 26 0 -1
BITMAP
7FE700
809900
808080
808080
808100
FFFF00
422000
042000
042000
07D000
041000
3FF800
200400
200400
200400
200400
1FFC00
042000
042000
042000
042000
042000
042000
081000
066000
018000
ENDCHAR
STARTCHAR tbar
ENCODING 359
SWIDTH 455 0
DWIDTH 16 0
BBX 17 26 0 -1
BITMAP
7FE700
809900
808080
808080
808100
FFFF00
422000
042000
042000
07D000
041000
3FF800
200400
200400
200400
200400
1FFC00
042000
042000
042000
042000
042000
042000
081000
066000
018000
ENDCHAR
STARTCHAR Utilde
ENCODING 360
SWIDTH 583 0
DWIDTH 21 0
BBX 20 36 0 -1
BITMAP
00F1C0
009920
011A20
013620
022440
046280
049180
049300
030F00
000000
1F07C0
108820
108420
108420
110420
110420
210420
290420
3687E0
210420
210420
210420
210420
210420
610410
5D07D0
410410
4205A0
427E60
43A070
422050
832050
622050
3C0FD0
13F3E0
1C0000
ENDCHAR
STARTCHAR utilde
ENCODING 361
SWIDTH 583 0
DWIDTH 21 0
BBX 20 36 0 -1
BITMAP
00F1C0
009920
011A20
013620
022440
046280
049180
049300
030F00
000000
1F07C0
108820
108420
108420
110420
110420
210420
290420
3687E0
210420
210420
210420
210420
210420
610410
5D07D0
410410
4205A0
427E60
43A070
422050
832050
622050
3C0FD0
13F3E0
1C0000
ENDCHAR
STARTCHAR Umacron
ENCODING 362
SWIDTH 583 0
DWIDTH 21 0
BBX 20 32 0 -1
BITMAP
01EE00
021200
020100
020100
01FE00
000000
1F07C0
108820
108420
108420
110420
110420
210420
290420
3687E0
210420
210420
210420
210420
210420
610410
5D07D0
410410
4205A0
427E60
43A070
422050
832050
622050
3C0FD0
13F3E0
1C0000
ENDCHAR
STARTCHAR umacron
ENCODING 363
SWIDTH 583 0
DWIDTH 21 0
BBX 20 32 0 -1
BITMAP
01EE00
021200
020100
020100
01FE00
000000
1F07C0
108820
108420
108420
110420
110420
210420
290420
3687E0
210420
210420
210420
210420
210420
610410
5D07D0
410410
4205A0
427E60
43A070
422050
832050
622050
3C0FD0
13F3E0
1C0000
ENDCHAR
STARTCHAR Ubreve
ENCODING 364
SWIDTH 583 0
DWIDTH 21 0
BBX 20 36 0 -1
BITMAP
030400
048B00
048980
048900
049D00
046600
024600
038600
00FC00
000000
1F07C0
108820
108420
108420
110420
110420
210420
290420
3687E0
210420
210420
210420
210420
210420
610410
5D07D0
410410
4205A0
427E60
43A070
422050
832050
622050
3C0FD0
13F3E0
1C0000
ENDCHAR
STARTCHAR ubreve
ENCODING 365
SWIDTH 583 0
DWIDTH 21 0
BBX 20 36 0 -1
BITMAP
030400
048B00
048980
048900
049D00
046600
024600
038600
00FC00
000000
1F07C0
108820
108420
108420
110420
110420
210420
290420
3687E0
210420
210420
210420
210420
210420
610410
5D07D0
410410
4205A0
427E60
43A070
422050
832050
622050
3C0FD0
13F3E0
1C0000
ENDCHAR
STARTCHAR Uring
ENCODING 366
SWIDTH 583 0
DWIDTH 21 0
BBX 20 37 0 -1
BITMAP
00FC00
011400
011200
023200
045100
04F900
038E00
020200
02F200
010C00
000000
1F07C0
108820
108420
108420
110420
110420
210420
290420
3687E0
210420
210420
210420
210420
210420
610410
5D07D0
410410
4205A0
427E60
43A070
422050
832050
622050
3C0FD0
13F3E0
1C0000
ENDCHAR
STARTCHAR uring
ENCODING 367
SWIDTH 583 0
DWIDTH 21 0
BBX 20 37 0 -1
BITMAP
00FC00
011400
011200
023200
045100
04F900
038E00
020200
02F200
010C00
000000
1F07C0
108820
108420
108420
110420
110420
210420
290420
3687E0
210420
210420
210420
210420
210420
610410
5D07D0
410410
4205A0
427E60
43A070
422050
832050
622050
3C0FD0
13F3E0
1C0000
ENDCHAR
STARTCHAR Uhungarumlaut
ENCODING 368
SWIDTH 583 0
DWIDTH 21 0
BBX 20 35 0 -1
BITMAP
006180
005940
008A20
008C40
011480
022880
024900
018600
000000
1F07C0
108820
108420
108420
110420
110420
210420
290420
3687E0
210420
210420
210420
210420
210420
610410
5D07D0
410410
4205A0
427E60
43A070
422050
832050
622050
3C0FD0
13F3E0
1C0000
ENDCHAR
STARTCHAR uhungarumlaut
ENCODING 369
SWIDTH 583 0
DWIDTH 21 0
BBX 20 35 0 -1
BITMAP
006180
005940
008A20
008C40
011480
022880
024900
018600
000000
1F07C0
108820
108420
108420
110420
110420
210420
290420
3687E0
210420
210420
210420
210420
210420
610410
5D07D0
410410
4205A0
427E60
43A070
422050
832050
622050
3C0FD0
13F3E0
1C0000
ENDCHAR
STARTCHAR Uogonek
ENCODING 370
SWIDTH 583 0
DWIDTH 21 0
BBX 20 34 0 -9
BITMAP
1F07C0
108820
108420
108420
110420
110420
210420
290420
3687E0
210420
210420
210420
210420
210420
610410
5D07D0
410410
4205A0
427E60
43A070
422050
832050
622050
3C0FD0
13F3E0
1C0240
000480
000480
000CC0
000730
000210
000190
0000F0
000040
ENDCHAR
STARTCHAR uogonek
ENCODING 371
SWIDTH 583 0
DWIDTH 21 0
BBX 20 34 0 -9
BITMAP
1F07C0
108820
108420
108420
110420
110420
210420
290420
3687E0
210420
210420
210420
210420
210420
610410
5D07D0
410410
4205A0
427E60
43A070
422050
832050
622050
3C0FD0
13F3E0
1C0240
000480
000480
000CC0
000730
000210
000190
0000F0
000040
ENDCHAR
STARTCHAR Wcircumflex
ENCODING 372
SWIDTH 735 0
DWIDTH 26 0
BBX 26 34 0 -1
BITMAP
001E0000
00130000
00230000
00268000
00448000
008C4000
00922000
00926000
0061C600
7C001980
840F0840
84110840
42211080
42311080
42309080
43489080
4D787C80
714F6280
21486100
21486100
21446100
10842100
1084C100
10FF6100
1F865D00
10864200
088A4200
090A4200
050A8400
050A8400
06098400
05890400
04F0C400
03803000
ENDCHAR
STARTCHAR wcircumflex
ENCODING 373
SWIDTH 735 0
DWIDTH 26 0
BBX 26 34 0 -1
BITMAP
001E0000
00130000
00230000
00268000
00448000
008C4000
00922000
00926000
0061C600
7C001980
840F0840
84110840
42211080
42311080
42309080
43489080
4D787C80
714F6280
21486100
21486100
21446100
10842100
1084C100
10FF6100
1F865D00
10864200
088A4200
090A4200
050A8400
050A8400
06098400
05890400
04F0C400
03803000
ENDCHAR
STARTCHAR Ycircumflex
ENCODING 374
SWIDTH 484 0
DWIDTH 17 0
BBX 19 35 -1 0
BITMAP
00F000
013000
011800
022800
044400
04A200
08A200
051200
071C00
000000
000300
3C04C0
440420
820420
820820
410840
209080
117880
126480
0C2280
0C2100
044200
024200
018400
01C400
013400
011400
010800
021000
061000
041000
082000
042000
032000
00C000
ENDCHAR
STARTCHAR ycircumflex
ENCODING 375
SWIDTH 484 0
DWIDTH 17 0
BBX 19 35 -1 0
BITMAP
00F000
013000
011800
022800
044400
04A200
08A200
051200
071C00
000000
000300
3C04C0
440420
820420
820820
410840
209080
117880
126480
0C2280
0C2100
044200
024200
018400
01C400
013400
011400
010800
021000
061000
041000
082000
042000
032000
00C000
ENDCHAR
STARTCHAR Ydieresis
ENCODING 376
SWIDTH 484 0
DWIDTH 17 0
BBX 19 32 -1 0
BITMAP
060C00
18B300
08A100
089200
089200
0F1E00
000000
000300
3C04C0
440420
820420
820820
410840
209080
117880
126480
0C2280
0C2100
044200
024200
018400
01C400
013400
011400
010800
021000
061000
041000
082000
042000
032000
00C000
ENDCHAR
STARTCHAR Zacute
ENCODING 377
SWIDTH 458 0
DWIDTH 16 0
BBX 17 34 0 0
BITMAP
003000
002800
004400
008800
009000
011000
012000
00C000
000000
1FFC00
208200
208200
408300
208280
2FFF00
108200
010400
01C400
023800
020800
021000
041000
082000
1C4000
124000
114000
208000
618400
41FA00
828200
828200
C48200
777E00
188000
ENDCHAR
STARTCHAR zacute
ENCODING 378
SWIDTH 458 0
DWIDTH 16 0
BBX 17 34 0 0
BITMAP
003000
002800
004400
008800
009000
011000
012000
00C000
000000
1FFC00
208200
208200
408300
208280
2FFF00
108200
010400
01C400
023800
020800
021000
041000
082000
1C4000
124000
114000
208000
618400
41FA00
828200
828200
C48200
777E00
188000
ENDCHAR
STARTCHAR Zdotaccent
ENCODING 379
SWIDTH 458 0
DWIDTH 16 0
BBX 17 33 0 0
BITMAP
018000
062000
022000
022000
022000
03C000
000000
000000
1FFC00
208200
208200
408300
208280
2FFF00
108200
010400
01C400
023800
020800
021000
041000
082000
1C4000
124000
114000
208000
618400
41FA00
828200
828200
C48200
777E00
188000
ENDCHAR
STARTCHAR zdotaccent
ENCODING 380
SWIDTH 458 0
DWIDTH 16 0
BBX 17 33 0 0
BITMAP
018000
062000
022000
022000
022000
03C000
000000
000000
1FFC00
208200
208200
408300
208280
2FFF00
108200
010400
01C400
023800
020800
021000
041000
082000
1C4000
124000
114000
208000
618400
41FA00
828200
828200
C48200
777E00
188000
ENDCHAR
STARTCHAR Zcaron
ENCODING 381
SWIDTH 458 0
DWIDTH 16 0
BBX 17 35 0 0
BITMAP
0E3800
114400
114400
088800
049000
045000
046000
026000
01C000
000000
1FFC00
208200
208200
408300
208280
2FFF00
108200
010400
01C400
023800
020800
021000
041000
082000
1C4000
124000
114000
208000
618400
41FA00
828200
828200
C48200
777E00
188000
ENDCHAR
STARTCHAR zcaron
ENCODING 382
SWIDTH 458 0
DWIDTH 16 0
BBX 17 35 0 0
BITMAP
0E3800
114400
114400
088800
049000
045000
046000
026000
01C000
000000
1FFC00
208200
208200
408300
208280
2FFF00
108200
010400
01C400
023800
020800
021000
041000
082000
1C4000
124000
114000
208000
618400
41FA00
828200
828200
C48200
777E00
188000
ENDCHAR
STARTCHAR AEacute
ENCODING 508
SWIDTH 797 0
DWIDTH 29 0
BBX 30 34 -1 0
BITMAP
00003000
00004800
00004400
00008800
00011000
00012000
00022000
0001C000
00000000
0003FFF8
003E0A08
00221204
00211204
00411204
00421DF8
00821200
01069000
01E77000
021A1080
020A1F40
02121040
04121040
0C221040
0C3E1E40
0A43F180
11421000
10C21000
20821F10
61FE12E8
41021208
82021208
42041408
22041FC8
1C03E030
ENDCHAR
STARTCHAR aeacute
ENCODING 509
SWIDTH 797 0
DWIDTH 29 0
BBX 30 34 -1 0
BITMAP
00003000
00004800
00004400
00008800
00011000
00012000
00022000
0001C000
00000000
0003FFF8
003E0A08
00221204
00211204
00411204
00421DF8
00821200
01069000
01E77000
021A1080
020A1F40
02121040
04121040
0C221040
0C3E1E40
0A43F180
11421000
10C21000
20821F10
61FE12E8
41021208
82021208
42041408
22041FC8
1C03E030
ENDCHAR
STARTCHAR Oslashacute
ENCODING 510
SWIDTH 612 0
DWIDTH 22 0
BBX 22 35 0 -1
BITMAP
000600
000500
000880
001100
001200
002200
002400
001800
080000
17F1C0
101F20
101210
101210
102410
1FCC20
10B850
109050
3EBCD0
20A290
212110
214210
214210
218610
310A08
2F8BE8
22CA08
223148
443FE8
483018
485018
909018
60901C
2107F0
31F800
1F0000
ENDCHAR
STARTCHAR oslashacute
ENCODING 511
SWIDTH 612 0
DWIDTH 22 0
BBX 22 35 0 -1
BITMAP
000600
000500
000880
001100
001200
002200
002400
001800
080000
17F1C0
101F20
101210
101210
102410
1FCC20
10B850
109050
3EBCD0
20A290
212110
214210
214210
218610
310A08
2F8BE8
22CA08
223148
443FE8
483018
485018
909018
60901C
2107F0
31F800
1F0000
ENDCHAR
STARTCHAR dotlessj
ENCODING 567
SWIDTH 482 0
DWIDTH 17 0
BBX 17 26 -1 -1
BITMAP
001F80
001080
001080
001080
001080
001080
001080
001480
003A80
001080
001080
001080
1C1080
641080
421080
813F80
409080
205080
135080
0C3080
0C1080
040C80
020480
010880
009F00
00F000
ENDCHAR
STARTCHAR circumflex
ENCODING 710
SWIDTH 308 0
DWIDTH 11 0
BBX 11 9 0 27
BITMAP
1F00
1300
2100
2280
4440
8A40
8A20
9120
71C0
ENDCHAR
STARTCHAR caron
ENCODING 711
SWIDTH 310 0
DWIDTH 11 0
BBX 11 9 0 27
BITMAP
71C0
8A20
8A20
4440
2480
2280
2300
1300
0E00
ENDCHAR
STARTCHAR breve
ENCODING 728
SWIDTH 333 0
DWIDTH 12 0
BBX 12 9 0 27
BITMAP
3040
C9A0
8910
4920
49A0
4E60
4840
7840
1F80
ENDCHAR
STARTCHAR dotaccent
ENCODING 729
SWIDTH 166 0
DWIDTH 6 0
BBX 6 6 0 27
BITMAP
38
C4
84
44
44
78
ENDCHAR
STARTCHAR ring
ENCODING 730
SWIDTH 309 0
DWIDTH 11 0
BBX 11 10 0 27
BITMAP
1F80
2280
2240
4640
8A20
9F20
71C0
4040
4E40
3180
ENDCHAR
STARTCHAR ogonek
ENCODING 731
SWIDTH 226 0
DWIDTH 8 0
BBX 8 12 0 -9
BITMAP
10
2C
24
44
48
88
8C
72
21
11
0A
04
ENDCHAR
STARTCHAR tilde
ENCODING 732
SWIDTH 410 0
DWIDTH 15 0
BBX 15 9 0 27
BITMAP
0F1C
1322
1122
22C4
4448
8A48
8A30
9130
71E0
ENDCHAR
STARTCHAR hungarumlaut
ENCODING 733
SWIDTH 361 0
DWIDTH 13 0
BBX 13 8 0 27
BITMAP
1C60
1250
2288
2298
4520
8A20
9240
7180
ENDCHAR
STARTCHAR uni0312
ENCODING 786
SWIDTH 202 0
DWIDTH 7 0
BBX 7 8 0 17
BITMAP
1C
12
22
24
48
88
D0
20
ENDCHAR
STARTCHAR uni0315
ENCODING 789
SWIDTH 202 0
DWIDTH 7 0
BBX 7 8 0 17
BITMAP
1C
12
22
24
48
88
D0
20
ENDCHAR
STARTCHAR uni0326
ENCODING 806
SWIDTH 201 0
DWIDTH 7 0
BBX 7 8 0 -9
BITMAP
08
16
22
22
44
88
90
70
ENDCHAR
STARTCHAR Wgrave
ENCODING 7808
SWIDTH 735 0
DWIDTH 26 0
BBX 26 33 0 -1
BITMAP
00380000
00440000
00440000
00440000
00220000
00120000
00120000
000C0600
7C001980
840F0840
84110840
42211080
42311080
42309080
43489080
4D787C80
714F6280
21486100
21486100
21446100
10842100
1084C100
10FF6100
1F865D00
10864200
088A4200
090A4200
050A8400
050A8400
06098400
05890400
04F0C400
03803000
ENDCHAR
STARTCHAR wgrave
ENCODING 7809
SWIDTH 735 0
DWIDTH 26 0
BBX 26 33 0 -1
BITMAP
00380000
00440000
00440000
00440000
00220000
00120000
00120000
000C0600
7C001980
840F0840
84110840
42211080
42311080
42309080
43489080
4D787C80
714F6280
21486100
21486100
21446100
10842100
1084C100
10FF6100
1F865D00
10864200
088A4200
090A4200
050A8400
050A8400
06098400
05890400
04F0C400
03803000
ENDCHAR
STARTCHAR Wacute
ENCODING 7810
SWIDTH 735 0
DWIDTH 26 0
BBX 26 34 0 -1
BITMAP
00018000
00016000
00022000
00026000
0004C000
00088000
00090000
00060000
00000600
7C001980
840F0840
84110840
42211080
42311080
42309080
43489080
4D787C80
714F6280
21486100
21486100
21446100
10842100
1084C100
10FF6100
1F865D00
10864200
088A4200
090A4200
050A8400
050A8400
06098400
05890400
04F0C400
03803000
ENDCHAR
STARTCHAR wacute
ENCODING 7811
SWIDTH 735 0
DWIDTH 26 0
BBX 26 34 0 -1
BITMAP
00018000
00016000
00022000
00026000
0004C000
00088000
00090000
00060000
00000600
7C001980
840F0840
84110840
42211080
42311080
42309080
43489080
4D787C80
714F6280
21486100
21486100
21446100
10842100
1084C100
10FF6100
1F865D00
10864200
088A4200
090A4200
050A8400
050A8400
06098400
05890400
04F0C400
03803000
ENDCHAR
STARTCHAR Wdieresis
ENCODING 7812
SWIDTH 735 0
DWIDTH 26 0
BBX 26 32 0 -1
BITMAP
0070C000
018B3000
010A2000
00922000
00922000
00F1C000
00000600
7C001980
840F0840
84110840
42211080
42311080
42309080
43489080
4D787C80
714F6280
21486100
21486100
21446100
10842100
1084C100
10FF6100
1F865D00
10864200
088A4200
090A4200
050A8400
050A8400
06098400
05890400
04F0C400
03803000
ENDCHAR
STARTCHAR wdieresis
ENCODING 7813
SWIDTH 735 0
DWIDTH 26 0
BBX 26 32 0 -1
BITMAP
0070C000
018B3000
010A2000
00922000
00922000
00F1C000
00000600
7C001980
840F0840
84110840
42211080
42311080
42309080
43489080
4D787C80
714F6280
21486100
21486100
21446100
10842100
1084C100
10FF6100
1F865D00
10864200
088A4200
090A4200
050A8400
050A8400
06098400
05890400
04F0C400
03803000
ENDCHAR
STARTCHAR Ygrave
ENCODING 7922
SWIDTH 484 0
DWIDTH 17 0
BBX 19 33 -1 0
BITMAP
01C000
024000
044000
022000
012000
011000
009000
00E000
000300
3C04C0
440420
820420
820820
410840
209080
117880
126480
0C2280
0C2100
044200
024200
018400
01C400
013400
011400
010800
021000
061000
041000
082000
042000
032000
00C000
ENDCHAR
STARTCHAR ygrave
ENCODING 7923
SWIDTH 484 0
DWIDTH 17 0
BBX 19 33 -1 0
BITMAP
01C000
024000
044000
022000
012000
011000
009000
00E000
000300
3C04C0
440420
820420
820820
410840
209080
117880
126480
0C2280
0C2100
044200
024200
018400
01C400
013400
011400
010800
021000
061000
041000
082000
042000
032000
00C000
ENDCHAR
STARTCHAR endash
ENCODING 8211
SWIDTH 591 0
DWIDTH 21 0
BBX 19 7 1 9
BITMAP
600000
9FFFE0
810820
810820
810820
810020
7FFFE0
ENDCHAR
STARTCHAR emdash
ENCODING 8212
SWIDTH 726 0
DWIDTH 26 0
BBX 24 6 1 9
BITMAP
7FFFEE
804091
804081
808081
808001
7FFFFF
ENDCHAR
STARTCHAR quoteleft
ENCODING 8216
SWIDTH 291 0
DWIDTH 11 0
BBX 11 14 0 12
BITMAP
0F80
0840
0860
0840
1080
3880
2680
2100
2100
4200
8200
8200
4200
3C00
ENDCHAR
STARTCHAR quoteright
ENCODING 8217
SWIDTH 291 0
DWIDTH 11 0
BBX 11 14 0 12
BITMAP
0F80
0840
0860
0840
1080
3880
2680
2100
2100
4200
8200
8200
4200
3C00
ENDCHAR
STARTCHAR quotesinglbase
ENCODING 8218
SWIDTH 228 0
DWIDTH 8 0
BBX 9 10 -1 -5
BITMAP
0C00
1300
1100
2080
6100
C200
8400
8400
4800
3800
ENDCHAR
STARTCHAR quotedblleft
ENCODING 8220
SWIDTH 532 0
DWIDTH 19 0
BBX 19 14 0 12
BITMAP
0F87C0
084420
086420
084840
108840
389C80
269380
212080
212100
422100
824100
824200
426200
3C3E00
ENDCHAR
STARTCHAR quotedblright
ENCODING 8221
SWIDTH 532 0
DWIDTH 19 0
BBX 19 14 0 12
BITMAP
0F87C0
084420
086420
084840
108840
389C80
269380
212080
212100
422100
824100
824200
426200
3C3E00
ENDCHAR
STARTCHAR quotedblbase
ENCODING 8222
SWIDTH 448 0
DWIDTH 16 0
BBX 17 10 -1 -5
BITMAP
0C0C00
131300
111100
20A080
614100
C2C200
848400
848800
484800
383000
ENDCHAR
STARTCHAR dagger
ENCODING 8224
SWIDTH 453 0
DWIDTH 16 0
BBX 15 29 1 -2
BITMAP
07C0
0820
0820
0840
0440
785C
8864
8842
8842
8FA2
9874
6848
0840
0840
0840
0840
0840
0F20
08C0
0840
0840
0840
0840
0840
0840
0840
1020
0CC0
0700
ENDCHAR
STARTCHAR daggerdbl
ENCODING 8225
SWIDTH 462 0
DWIDTH 17 0
BBX 15 29 1 -2
BITMAP
07C0
0820
0820
0420
0440
7C4C
8474
8842
8822
8FA2
9834
684C
0840
0840
0840
0840
0820
6F24
98BC
8842
8842
8842
8844
787C
0840
0820
0820
0CC0
0300
ENDCHAR
STARTCHAR bullet
ENCODING 8226
SWIDTH 275 0
DWIDTH 10 0
BBX 6 6 2 10
BITMAP
78
84
84
84
8C
70
ENDCHAR
STARTCHAR ellipsis
ENCODING 8230
SWIDTH 605 0
DWIDTH 22 0
BBX 20 6 1 -1
BITMAP
FDF1F0
890A10
891110
891110
C99B30
3060C0
ENDCHAR
STARTCHAR perthousand
ENCODING 8240
SWIDTH 1249 0
DWIDTH 45 0
BBX 43 25 1 0
BITMAP
7F8000000000
4041E0000000
F06110000000
885110000000
8F9220000000
892220000000
892220000000
892220000000
892720000000
BF14A0000000
C11440000000
C1144FF07F80
40E450108080
3FC89E0CF060
0008A21510A0
000E93F51FA0
000992449220
000892449220
001112451220
001126451220
00112BC57E20
002128454220
002128454220
001E1838C1C0
000007F03F80
ENDCHAR
STARTCHAR guilsinglleft
ENCODING 8249
SWIDTH 359 0
DWIDTH 13 0
BBX 11 16 1 5
BITMAP
0100
02C0
0460
1820
6020
80C0
8100
8600
CC00
BA00
8180
6040
1020
0820
0440
0380
ENDCHAR
STARTCHAR guilsinglright
ENCODING 8250
SWIDTH 359 0
DWIDTH 13 0
BBX 11 16 1 5
BITMAP
1000
6800
C400
8300
8080
6060
1020
0C20
0660
0BA0
3020
C0C0
8100
8200
4400
3800
ENDCHAR
STARTCHAR fraction
ENCODING 8260
SWIDTH 266 0
DWIDTH 10 0
BBX 10 23 0 1
BITMAP
0700
0880
0840
0880
0880
0880
1100
1D00
1300
1100
1100
2200
2200
2200
3A00
4600
4400
4400
4400
8400
8400
8400
7800
ENDCHAR
STARTCHAR Euro
ENCODING 8364
SWIDTH 690 0
DWIDTH 25 0
BBX 23 27 1 -1
BITMAP
008000
01FF00
0101FC
010104
010102
010102
01FCC4
090B3C
170800
23E800
220800
210800
161000
0A1000
FE1000
831000
82F000
821000
821008
7C27F4
043A04
042202
0C1102
076104
0280FC
013F00
00C000
ENDCHAR
STARTCHAR partialdiff
ENCODING 8706
SWIDTH 519 0
DWIDTH 19 0
BBX 20 26 -1 -1
BITMAP
003C00
00C200
008200
004200
004200
004200
004100
002700
003900
006100
00A100
031080
041080
0C1080
121040
6177C0
82D040
4F8840
58C840
303840
100420
180420
060410
018420
0067C0
001800
ENDCHAR
STARTCHAR minus
ENCODING 8722
SWIDTH 467 0
DWIDTH 17 0
BBX 15 7 1 8
BITMAP
7FFC
8082
8082
8082
8102
7FFC
4000
ENDCHAR
STARTCHAR fi
ENCODING 64257
SWIDTH 741 0
DWIDTH 27 0
BBX 25 25 1 0
BITMAP
7FFF3F00
42412080
4240A100
4240A100
42412100
43BF2100
42402100
52003900
EE006700
42102100
43E82100
42082100
42082100
42082100
43C82100
7E303F00
42002100
42002100
42002100
42002100
42002100
82002100
82004100
82004100
7C003E00
ENDCHAR
STARTCHAR fl
ENCODING 64258
SWIDTH 942 0
DWIDTH 34 0
BBX 34 25 1 0
BITMAP
7FFF3F0000
4241208000
4240A10000
4240A10000
4241210000
43BF210000
4240210000
5200390000
EE00670000
4210210000
43E8210000
4208210000
4208210000
4208210000
43C8210000
7E303F0000
4200210000
4200210000
420021C100
4200217C80
4200214040
8200214040
8200414040
8200411C80
7C003EE380
ENDCHAR
STARTCHAR .notdef
ENCODING -1
SWIDTH 200 0
DWIDTH 7 0
BBX 1 1 0 0
BITMAP
00
ENDCHAR
STARTCHAR .null
ENCODING -1
SWIDTH 0 0
DWIDTH 0 0
BBX 1 1 0 0
BITMAP
00
ENDCHAR
STARTCHAR nonmarkingreturn
ENCODING -1
SWIDTH 200 0
DWIDTH 7 0
BBX 1 1 0 0
BITMAP
00
ENDCHAR
ENDFONT
